ISO-10303-21;
HEADER;
/* Generated by software containing ST-Developer
 * from STEP Tools, Inc. (www.steptools.com) 
 */
/* OPTION: using custom renumber hook */

FILE_DESCRIPTION(
/* description */ ('STEP AP242 Edition 2',
'CAx-IF Rec.Pracs.---Representation and Presentation of Product Manufa
cturing Information (PMI)---4.0---2014-10-13',
'CAx-IF Rec.Pracs.---3D Tessellated Geometry---0.4---2014-09-14','2;1',
'CAx-IF Rec.Pracs.---User Defined Attributes---1.5---2016-08-15'),
/* implementation_level */ '2;1');

FILE_NAME(
/* name */ 'Part Studio 1',
/* time_stamp */ '2026-09-21T10:33:44Z',
/* author */ (''),
/* organization */ (''),
/* preprocessor_version */ 'ST-DEVELOPER v20',
/* originating_system */ 'ONSHAPE BY PTC INC, 1.221',
/* authorisation */ '  ');

FILE_SCHEMA (('AP242_MANAGED_MODEL_BASED_3D_ENGINEERING_MIM_LF { 1 0 10303 442 3 1 4 }'));
ENDSEC;

DATA;
#10=SHAPE_REPRESENTATION_RELATIONSHIP('','',#1179,#11);
#11=ADVANCED_BREP_SHAPE_REPRESENTATION('',(#1177),#1901);
#12=SPHERICAL_SURFACE('',#1249,0.00381);
#13=SPHERICAL_SURFACE('',#1256,0.00381);
#14=SPHERICAL_SURFACE('',#1258,0.00381);
#15=SPHERICAL_SURFACE('',#1264,0.00381);
#16=CYLINDRICAL_SURFACE('',#1195,0.00381);
#17=CYLINDRICAL_SURFACE('',#1197,0.00381);
#18=CYLINDRICAL_SURFACE('',#1199,0.00381);
#19=CYLINDRICAL_SURFACE('',#1201,0.00381);
#20=CYLINDRICAL_SURFACE('',#1252,0.00381);
#21=CYLINDRICAL_SURFACE('',#1254,0.00381);
#22=CYLINDRICAL_SURFACE('',#1260,0.00381);
#23=CYLINDRICAL_SURFACE('',#1262,0.00381);
#24=CIRCLE('',#1186,0.00381);
#25=CIRCLE('',#1187,0.00381);
#26=CIRCLE('',#1188,0.00381);
#27=CIRCLE('',#1189,0.00381);
#28=CIRCLE('',#1196,0.00381);
#29=CIRCLE('',#1198,0.00381);
#30=CIRCLE('',#1200,0.00381);
#31=CIRCLE('',#1202,0.00381);
#32=CIRCLE('',#1250,0.00381);
#33=CIRCLE('',#1251,0.00381);
#34=CIRCLE('',#1253,0.00381);
#35=CIRCLE('',#1255,0.00381);
#36=CIRCLE('',#1257,0.00381);
#37=CIRCLE('',#1259,0.00381);
#38=CIRCLE('',#1261,0.00381);
#39=CIRCLE('',#1263,0.00381);
#40=ORIENTED_EDGE('',*,*,#352,.T.);
#41=ORIENTED_EDGE('',*,*,#353,.T.);
#42=ORIENTED_EDGE('',*,*,#354,.T.);
#43=ORIENTED_EDGE('',*,*,#355,.F.);
#44=ORIENTED_EDGE('',*,*,#356,.T.);
#45=ORIENTED_EDGE('',*,*,#357,.T.);
#46=ORIENTED_EDGE('',*,*,#358,.T.);
#47=ORIENTED_EDGE('',*,*,#359,.T.);
#48=ORIENTED_EDGE('',*,*,#360,.T.);
#49=ORIENTED_EDGE('',*,*,#361,.T.);
#50=ORIENTED_EDGE('',*,*,#362,.T.);
#51=ORIENTED_EDGE('',*,*,#363,.T.);
#52=ORIENTED_EDGE('',*,*,#364,.T.);
#53=ORIENTED_EDGE('',*,*,#365,.T.);
#54=ORIENTED_EDGE('',*,*,#366,.T.);
#55=ORIENTED_EDGE('',*,*,#367,.F.);
#56=ORIENTED_EDGE('',*,*,#359,.F.);
#57=ORIENTED_EDGE('',*,*,#368,.T.);
#58=ORIENTED_EDGE('',*,*,#355,.T.);
#59=ORIENTED_EDGE('',*,*,#369,.T.);
#60=ORIENTED_EDGE('',*,*,#367,.T.);
#61=ORIENTED_EDGE('',*,*,#370,.T.);
#62=ORIENTED_EDGE('',*,*,#363,.F.);
#63=ORIENTED_EDGE('',*,*,#371,.T.);
#64=ORIENTED_EDGE('',*,*,#372,.F.);
#65=ORIENTED_EDGE('',*,*,#373,.F.);
#66=ORIENTED_EDGE('',*,*,#374,.T.);
#67=ORIENTED_EDGE('',*,*,#375,.T.);
#68=ORIENTED_EDGE('',*,*,#376,.F.);
#69=ORIENTED_EDGE('',*,*,#377,.F.);
#70=ORIENTED_EDGE('',*,*,#378,.T.);
#71=ORIENTED_EDGE('',*,*,#373,.T.);
#72=ORIENTED_EDGE('',*,*,#379,.F.);
#73=ORIENTED_EDGE('',*,*,#380,.F.);
#74=ORIENTED_EDGE('',*,*,#381,.T.);
#75=ORIENTED_EDGE('',*,*,#377,.T.);
#76=ORIENTED_EDGE('',*,*,#382,.F.);
#77=ORIENTED_EDGE('',*,*,#375,.F.);
#78=ORIENTED_EDGE('',*,*,#383,.T.);
#79=ORIENTED_EDGE('',*,*,#380,.T.);
#80=ORIENTED_EDGE('',*,*,#384,.T.);
#81=ORIENTED_EDGE('',*,*,#385,.T.);
#82=ORIENTED_EDGE('',*,*,#386,.T.);
#83=ORIENTED_EDGE('',*,*,#387,.T.);
#84=ORIENTED_EDGE('',*,*,#374,.F.);
#85=ORIENTED_EDGE('',*,*,#378,.F.);
#86=ORIENTED_EDGE('',*,*,#381,.F.);
#87=ORIENTED_EDGE('',*,*,#383,.F.);
#88=ORIENTED_EDGE('',*,*,#358,.F.);
#89=ORIENTED_EDGE('',*,*,#388,.T.);
#90=ORIENTED_EDGE('',*,*,#352,.F.);
#91=ORIENTED_EDGE('',*,*,#368,.F.);
#92=ORIENTED_EDGE('',*,*,#354,.F.);
#93=ORIENTED_EDGE('',*,*,#389,.T.);
#94=ORIENTED_EDGE('',*,*,#364,.F.);
#95=ORIENTED_EDGE('',*,*,#369,.F.);
#96=ORIENTED_EDGE('',*,*,#366,.F.);
#97=ORIENTED_EDGE('',*,*,#390,.T.);
#98=ORIENTED_EDGE('',*,*,#360,.F.);
#99=ORIENTED_EDGE('',*,*,#370,.F.);
#100=ORIENTED_EDGE('',*,*,#362,.F.);
#101=ORIENTED_EDGE('',*,*,#391,.T.);
#102=ORIENTED_EDGE('',*,*,#356,.F.);
#103=ORIENTED_EDGE('',*,*,#371,.F.);
#104=ORIENTED_EDGE('',*,*,#392,.F.);
#105=ORIENTED_EDGE('',*,*,#393,.F.);
#106=ORIENTED_EDGE('',*,*,#394,.T.);
#107=ORIENTED_EDGE('',*,*,#395,.T.);
#108=ORIENTED_EDGE('',*,*,#396,.T.);
#109=ORIENTED_EDGE('',*,*,#397,.F.);
#110=ORIENTED_EDGE('',*,*,#398,.F.);
#111=ORIENTED_EDGE('',*,*,#393,.T.);
#112=ORIENTED_EDGE('',*,*,#399,.T.);
#113=ORIENTED_EDGE('',*,*,#400,.F.);
#114=ORIENTED_EDGE('',*,*,#401,.F.);
#115=ORIENTED_EDGE('',*,*,#397,.T.);
#116=ORIENTED_EDGE('',*,*,#402,.F.);
#117=ORIENTED_EDGE('',*,*,#403,.F.);
#118=ORIENTED_EDGE('',*,*,#404,.T.);
#119=ORIENTED_EDGE('',*,*,#405,.T.);
#120=ORIENTED_EDGE('',*,*,#406,.T.);
#121=ORIENTED_EDGE('',*,*,#407,.F.);
#122=ORIENTED_EDGE('',*,*,#408,.F.);
#123=ORIENTED_EDGE('',*,*,#403,.T.);
#124=ORIENTED_EDGE('',*,*,#409,.T.);
#125=ORIENTED_EDGE('',*,*,#410,.F.);
#126=ORIENTED_EDGE('',*,*,#411,.F.);
#127=ORIENTED_EDGE('',*,*,#407,.T.);
#128=ORIENTED_EDGE('',*,*,#412,.F.);
#129=ORIENTED_EDGE('',*,*,#413,.F.);
#130=ORIENTED_EDGE('',*,*,#414,.T.);
#131=ORIENTED_EDGE('',*,*,#415,.T.);
#132=ORIENTED_EDGE('',*,*,#416,.T.);
#133=ORIENTED_EDGE('',*,*,#417,.F.);
#134=ORIENTED_EDGE('',*,*,#418,.F.);
#135=ORIENTED_EDGE('',*,*,#413,.T.);
#136=ORIENTED_EDGE('',*,*,#419,.T.);
#137=ORIENTED_EDGE('',*,*,#420,.F.);
#138=ORIENTED_EDGE('',*,*,#421,.F.);
#139=ORIENTED_EDGE('',*,*,#417,.T.);
#140=ORIENTED_EDGE('',*,*,#422,.F.);
#141=ORIENTED_EDGE('',*,*,#423,.F.);
#142=ORIENTED_EDGE('',*,*,#424,.T.);
#143=ORIENTED_EDGE('',*,*,#425,.T.);
#144=ORIENTED_EDGE('',*,*,#426,.T.);
#145=ORIENTED_EDGE('',*,*,#427,.F.);
#146=ORIENTED_EDGE('',*,*,#428,.F.);
#147=ORIENTED_EDGE('',*,*,#423,.T.);
#148=ORIENTED_EDGE('',*,*,#429,.T.);
#149=ORIENTED_EDGE('',*,*,#430,.F.);
#150=ORIENTED_EDGE('',*,*,#431,.F.);
#151=ORIENTED_EDGE('',*,*,#427,.T.);
#152=ORIENTED_EDGE('',*,*,#432,.F.);
#153=ORIENTED_EDGE('',*,*,#433,.F.);
#154=ORIENTED_EDGE('',*,*,#434,.T.);
#155=ORIENTED_EDGE('',*,*,#435,.T.);
#156=ORIENTED_EDGE('',*,*,#436,.T.);
#157=ORIENTED_EDGE('',*,*,#437,.F.);
#158=ORIENTED_EDGE('',*,*,#438,.F.);
#159=ORIENTED_EDGE('',*,*,#433,.T.);
#160=ORIENTED_EDGE('',*,*,#439,.T.);
#161=ORIENTED_EDGE('',*,*,#440,.F.);
#162=ORIENTED_EDGE('',*,*,#441,.F.);
#163=ORIENTED_EDGE('',*,*,#437,.T.);
#164=ORIENTED_EDGE('',*,*,#442,.F.);
#165=ORIENTED_EDGE('',*,*,#443,.F.);
#166=ORIENTED_EDGE('',*,*,#444,.T.);
#167=ORIENTED_EDGE('',*,*,#445,.T.);
#168=ORIENTED_EDGE('',*,*,#446,.T.);
#169=ORIENTED_EDGE('',*,*,#447,.F.);
#170=ORIENTED_EDGE('',*,*,#448,.F.);
#171=ORIENTED_EDGE('',*,*,#443,.T.);
#172=ORIENTED_EDGE('',*,*,#449,.T.);
#173=ORIENTED_EDGE('',*,*,#450,.F.);
#174=ORIENTED_EDGE('',*,*,#451,.F.);
#175=ORIENTED_EDGE('',*,*,#447,.T.);
#176=ORIENTED_EDGE('',*,*,#452,.F.);
#177=ORIENTED_EDGE('',*,*,#453,.F.);
#178=ORIENTED_EDGE('',*,*,#454,.T.);
#179=ORIENTED_EDGE('',*,*,#455,.T.);
#180=ORIENTED_EDGE('',*,*,#456,.F.);
#181=ORIENTED_EDGE('',*,*,#457,.F.);
#182=ORIENTED_EDGE('',*,*,#458,.T.);
#183=ORIENTED_EDGE('',*,*,#453,.T.);
#184=ORIENTED_EDGE('',*,*,#459,.T.);
#185=ORIENTED_EDGE('',*,*,#460,.F.);
#186=ORIENTED_EDGE('',*,*,#461,.F.);
#187=ORIENTED_EDGE('',*,*,#457,.T.);
#188=ORIENTED_EDGE('',*,*,#462,.F.);
#189=ORIENTED_EDGE('',*,*,#463,.F.);
#190=ORIENTED_EDGE('',*,*,#464,.T.);
#191=ORIENTED_EDGE('',*,*,#465,.T.);
#192=ORIENTED_EDGE('',*,*,#466,.F.);
#193=ORIENTED_EDGE('',*,*,#467,.F.);
#194=ORIENTED_EDGE('',*,*,#468,.T.);
#195=ORIENTED_EDGE('',*,*,#463,.T.);
#196=ORIENTED_EDGE('',*,*,#469,.T.);
#197=ORIENTED_EDGE('',*,*,#470,.F.);
#198=ORIENTED_EDGE('',*,*,#471,.F.);
#199=ORIENTED_EDGE('',*,*,#467,.T.);
#200=ORIENTED_EDGE('',*,*,#472,.F.);
#201=ORIENTED_EDGE('',*,*,#473,.F.);
#202=ORIENTED_EDGE('',*,*,#474,.T.);
#203=ORIENTED_EDGE('',*,*,#475,.T.);
#204=ORIENTED_EDGE('',*,*,#476,.F.);
#205=ORIENTED_EDGE('',*,*,#477,.F.);
#206=ORIENTED_EDGE('',*,*,#478,.T.);
#207=ORIENTED_EDGE('',*,*,#473,.T.);
#208=ORIENTED_EDGE('',*,*,#479,.T.);
#209=ORIENTED_EDGE('',*,*,#480,.F.);
#210=ORIENTED_EDGE('',*,*,#481,.F.);
#211=ORIENTED_EDGE('',*,*,#477,.T.);
#212=ORIENTED_EDGE('',*,*,#482,.F.);
#213=ORIENTED_EDGE('',*,*,#395,.F.);
#214=ORIENTED_EDGE('',*,*,#483,.T.);
#215=ORIENTED_EDGE('',*,*,#400,.T.);
#216=ORIENTED_EDGE('',*,*,#484,.F.);
#217=ORIENTED_EDGE('',*,*,#405,.F.);
#218=ORIENTED_EDGE('',*,*,#485,.T.);
#219=ORIENTED_EDGE('',*,*,#410,.T.);
#220=ORIENTED_EDGE('',*,*,#486,.F.);
#221=ORIENTED_EDGE('',*,*,#415,.F.);
#222=ORIENTED_EDGE('',*,*,#487,.T.);
#223=ORIENTED_EDGE('',*,*,#420,.T.);
#224=ORIENTED_EDGE('',*,*,#488,.F.);
#225=ORIENTED_EDGE('',*,*,#425,.F.);
#226=ORIENTED_EDGE('',*,*,#489,.T.);
#227=ORIENTED_EDGE('',*,*,#430,.T.);
#228=ORIENTED_EDGE('',*,*,#490,.F.);
#229=ORIENTED_EDGE('',*,*,#435,.F.);
#230=ORIENTED_EDGE('',*,*,#491,.T.);
#231=ORIENTED_EDGE('',*,*,#440,.T.);
#232=ORIENTED_EDGE('',*,*,#492,.F.);
#233=ORIENTED_EDGE('',*,*,#445,.F.);
#234=ORIENTED_EDGE('',*,*,#493,.T.);
#235=ORIENTED_EDGE('',*,*,#450,.T.);
#236=ORIENTED_EDGE('',*,*,#494,.T.);
#237=ORIENTED_EDGE('',*,*,#455,.F.);
#238=ORIENTED_EDGE('',*,*,#495,.F.);
#239=ORIENTED_EDGE('',*,*,#460,.T.);
#240=ORIENTED_EDGE('',*,*,#496,.T.);
#241=ORIENTED_EDGE('',*,*,#465,.F.);
#242=ORIENTED_EDGE('',*,*,#497,.F.);
#243=ORIENTED_EDGE('',*,*,#470,.T.);
#244=ORIENTED_EDGE('',*,*,#498,.T.);
#245=ORIENTED_EDGE('',*,*,#475,.F.);
#246=ORIENTED_EDGE('',*,*,#499,.F.);
#247=ORIENTED_EDGE('',*,*,#480,.T.);
#248=ORIENTED_EDGE('',*,*,#474,.F.);
#249=ORIENTED_EDGE('',*,*,#478,.F.);
#250=ORIENTED_EDGE('',*,*,#481,.T.);
#251=ORIENTED_EDGE('',*,*,#499,.T.);
#252=ORIENTED_EDGE('',*,*,#464,.F.);
#253=ORIENTED_EDGE('',*,*,#468,.F.);
#254=ORIENTED_EDGE('',*,*,#471,.T.);
#255=ORIENTED_EDGE('',*,*,#497,.T.);
#256=ORIENTED_EDGE('',*,*,#454,.F.);
#257=ORIENTED_EDGE('',*,*,#458,.F.);
#258=ORIENTED_EDGE('',*,*,#461,.T.);
#259=ORIENTED_EDGE('',*,*,#495,.T.);
#260=ORIENTED_EDGE('',*,*,#444,.F.);
#261=ORIENTED_EDGE('',*,*,#448,.T.);
#262=ORIENTED_EDGE('',*,*,#451,.T.);
#263=ORIENTED_EDGE('',*,*,#493,.F.);
#264=ORIENTED_EDGE('',*,*,#434,.F.);
#265=ORIENTED_EDGE('',*,*,#438,.T.);
#266=ORIENTED_EDGE('',*,*,#441,.T.);
#267=ORIENTED_EDGE('',*,*,#491,.F.);
#268=ORIENTED_EDGE('',*,*,#424,.F.);
#269=ORIENTED_EDGE('',*,*,#428,.T.);
#270=ORIENTED_EDGE('',*,*,#431,.T.);
#271=ORIENTED_EDGE('',*,*,#489,.F.);
#272=ORIENTED_EDGE('',*,*,#414,.F.);
#273=ORIENTED_EDGE('',*,*,#418,.T.);
#274=ORIENTED_EDGE('',*,*,#421,.T.);
#275=ORIENTED_EDGE('',*,*,#487,.F.);
#276=ORIENTED_EDGE('',*,*,#404,.F.);
#277=ORIENTED_EDGE('',*,*,#408,.T.);
#278=ORIENTED_EDGE('',*,*,#411,.T.);
#279=ORIENTED_EDGE('',*,*,#485,.F.);
#280=ORIENTED_EDGE('',*,*,#394,.F.);
#281=ORIENTED_EDGE('',*,*,#398,.T.);
#282=ORIENTED_EDGE('',*,*,#401,.T.);
#283=ORIENTED_EDGE('',*,*,#483,.F.);
#284=ORIENTED_EDGE('',*,*,#379,.T.);
#285=ORIENTED_EDGE('',*,*,#376,.T.);
#286=ORIENTED_EDGE('',*,*,#372,.T.);
#287=ORIENTED_EDGE('',*,*,#382,.T.);
#288=ORIENTED_EDGE('',*,*,#462,.T.);
#289=ORIENTED_EDGE('',*,*,#496,.F.);
#290=ORIENTED_EDGE('',*,*,#469,.F.);
#291=ORIENTED_EDGE('',*,*,#466,.T.);
#292=ORIENTED_EDGE('',*,*,#452,.T.);
#293=ORIENTED_EDGE('',*,*,#494,.F.);
#294=ORIENTED_EDGE('',*,*,#459,.F.);
#295=ORIENTED_EDGE('',*,*,#456,.T.);
#296=ORIENTED_EDGE('',*,*,#442,.T.);
#297=ORIENTED_EDGE('',*,*,#492,.T.);
#298=ORIENTED_EDGE('',*,*,#449,.F.);
#299=ORIENTED_EDGE('',*,*,#446,.F.);
#300=ORIENTED_EDGE('',*,*,#432,.T.);
#301=ORIENTED_EDGE('',*,*,#490,.T.);
#302=ORIENTED_EDGE('',*,*,#439,.F.);
#303=ORIENTED_EDGE('',*,*,#436,.F.);
#304=ORIENTED_EDGE('',*,*,#422,.T.);
#305=ORIENTED_EDGE('',*,*,#488,.T.);
#306=ORIENTED_EDGE('',*,*,#429,.F.);
#307=ORIENTED_EDGE('',*,*,#426,.F.);
#308=ORIENTED_EDGE('',*,*,#412,.T.);
#309=ORIENTED_EDGE('',*,*,#486,.T.);
#310=ORIENTED_EDGE('',*,*,#419,.F.);
#311=ORIENTED_EDGE('',*,*,#416,.F.);
#312=ORIENTED_EDGE('',*,*,#402,.T.);
#313=ORIENTED_EDGE('',*,*,#484,.T.);
#314=ORIENTED_EDGE('',*,*,#409,.F.);
#315=ORIENTED_EDGE('',*,*,#406,.F.);
#316=ORIENTED_EDGE('',*,*,#392,.T.);
#317=ORIENTED_EDGE('',*,*,#482,.T.);
#318=ORIENTED_EDGE('',*,*,#399,.F.);
#319=ORIENTED_EDGE('',*,*,#396,.F.);
#320=ORIENTED_EDGE('',*,*,#472,.T.);
#321=ORIENTED_EDGE('',*,*,#498,.F.);
#322=ORIENTED_EDGE('',*,*,#479,.F.);
#323=ORIENTED_EDGE('',*,*,#476,.T.);
#324=ORIENTED_EDGE('',*,*,#500,.F.);
#325=ORIENTED_EDGE('',*,*,#389,.F.);
#326=ORIENTED_EDGE('',*,*,#501,.F.);
#327=ORIENTED_EDGE('',*,*,#501,.T.);
#328=ORIENTED_EDGE('',*,*,#353,.F.);
#329=ORIENTED_EDGE('',*,*,#502,.F.);
#330=ORIENTED_EDGE('',*,*,#384,.F.);
#331=ORIENTED_EDGE('',*,*,#500,.T.);
#332=ORIENTED_EDGE('',*,*,#387,.F.);
#333=ORIENTED_EDGE('',*,*,#503,.F.);
#334=ORIENTED_EDGE('',*,*,#365,.F.);
#335=ORIENTED_EDGE('',*,*,#502,.T.);
#336=ORIENTED_EDGE('',*,*,#388,.F.);
#337=ORIENTED_EDGE('',*,*,#504,.F.);
#338=ORIENTED_EDGE('',*,*,#390,.F.);
#339=ORIENTED_EDGE('',*,*,#503,.T.);
#340=ORIENTED_EDGE('',*,*,#505,.F.);
#341=ORIENTED_EDGE('',*,*,#504,.T.);
#342=ORIENTED_EDGE('',*,*,#357,.F.);
#343=ORIENTED_EDGE('',*,*,#506,.F.);
#344=ORIENTED_EDGE('',*,*,#385,.F.);
#345=ORIENTED_EDGE('',*,*,#505,.T.);
#346=ORIENTED_EDGE('',*,*,#386,.F.);
#347=ORIENTED_EDGE('',*,*,#507,.F.);
#348=ORIENTED_EDGE('',*,*,#361,.F.);
#349=ORIENTED_EDGE('',*,*,#506,.T.);
#350=ORIENTED_EDGE('',*,*,#391,.F.);
#351=ORIENTED_EDGE('',*,*,#507,.T.);
#352=EDGE_CURVE('',#508,#509,#608,.F.);
#353=EDGE_CURVE('',#509,#510,#609,.T.);
#354=EDGE_CURVE('',#510,#511,#610,.T.);
#355=EDGE_CURVE('',#508,#511,#611,.T.);
#356=EDGE_CURVE('',#512,#513,#612,.F.);
#357=EDGE_CURVE('',#513,#514,#613,.F.);
#358=EDGE_CURVE('',#514,#515,#614,.T.);
#359=EDGE_CURVE('',#515,#512,#615,.T.);
#360=EDGE_CURVE('',#516,#517,#616,.F.);
#361=EDGE_CURVE('',#517,#518,#617,.F.);
#362=EDGE_CURVE('',#518,#519,#618,.T.);
#363=EDGE_CURVE('',#519,#516,#619,.T.);
#364=EDGE_CURVE('',#520,#521,#620,.F.);
#365=EDGE_CURVE('',#521,#522,#621,.T.);
#366=EDGE_CURVE('',#522,#523,#622,.T.);
#367=EDGE_CURVE('',#520,#523,#623,.T.);
#368=EDGE_CURVE('',#515,#508,#24,.F.);
#369=EDGE_CURVE('',#511,#520,#25,.F.);
#370=EDGE_CURVE('',#523,#516,#26,.F.);
#371=EDGE_CURVE('',#519,#512,#27,.F.);
#372=EDGE_CURVE('',#524,#525,#624,.T.);
#373=EDGE_CURVE('',#526,#524,#625,.T.);
#374=EDGE_CURVE('',#526,#527,#626,.T.);
#375=EDGE_CURVE('',#527,#525,#627,.T.);
#376=EDGE_CURVE('',#528,#524,#628,.T.);
#377=EDGE_CURVE('',#529,#528,#629,.T.);
#378=EDGE_CURVE('',#529,#526,#630,.T.);
#379=EDGE_CURVE('',#530,#528,#631,.T.);
#380=EDGE_CURVE('',#531,#530,#632,.T.);
#381=EDGE_CURVE('',#531,#529,#633,.T.);
#382=EDGE_CURVE('',#525,#530,#634,.T.);
#383=EDGE_CURVE('',#527,#531,#635,.T.);
#384=EDGE_CURVE('',#532,#533,#636,.F.);
#385=EDGE_CURVE('',#533,#534,#637,.T.);
#386=EDGE_CURVE('',#534,#535,#638,.T.);
#387=EDGE_CURVE('',#535,#532,#639,.F.);
#388=EDGE_CURVE('',#514,#509,#28,.F.);
#389=EDGE_CURVE('',#510,#521,#29,.T.);
#390=EDGE_CURVE('',#522,#517,#30,.F.);
#391=EDGE_CURVE('',#518,#513,#31,.T.);
#392=EDGE_CURVE('',#536,#537,#640,.T.);
#393=EDGE_CURVE('',#538,#536,#641,.T.);
#394=EDGE_CURVE('',#538,#539,#642,.T.);
#395=EDGE_CURVE('',#539,#537,#643,.T.);
#396=EDGE_CURVE('',#536,#540,#644,.T.);
#397=EDGE_CURVE('',#541,#540,#645,.T.);
#398=EDGE_CURVE('',#538,#541,#646,.T.);
#399=EDGE_CURVE('',#540,#542,#647,.T.);
#400=EDGE_CURVE('',#543,#542,#648,.T.);
#401=EDGE_CURVE('',#541,#543,#649,.T.);
#402=EDGE_CURVE('',#544,#545,#650,.T.);
#403=EDGE_CURVE('',#546,#544,#651,.T.);
#404=EDGE_CURVE('',#546,#547,#652,.T.);
#405=EDGE_CURVE('',#547,#545,#653,.T.);
#406=EDGE_CURVE('',#544,#548,#654,.T.);
#407=EDGE_CURVE('',#549,#548,#655,.T.);
#408=EDGE_CURVE('',#546,#549,#656,.T.);
#409=EDGE_CURVE('',#548,#550,#657,.T.);
#410=EDGE_CURVE('',#551,#550,#658,.T.);
#411=EDGE_CURVE('',#549,#551,#659,.T.);
#412=EDGE_CURVE('',#552,#553,#660,.T.);
#413=EDGE_CURVE('',#554,#552,#661,.T.);
#414=EDGE_CURVE('',#554,#555,#662,.T.);
#415=EDGE_CURVE('',#555,#553,#663,.T.);
#416=EDGE_CURVE('',#552,#556,#664,.T.);
#417=EDGE_CURVE('',#557,#556,#665,.T.);
#418=EDGE_CURVE('',#554,#557,#666,.T.);
#419=EDGE_CURVE('',#556,#558,#667,.T.);
#420=EDGE_CURVE('',#559,#558,#668,.T.);
#421=EDGE_CURVE('',#557,#559,#669,.T.);
#422=EDGE_CURVE('',#560,#561,#670,.T.);
#423=EDGE_CURVE('',#562,#560,#671,.T.);
#424=EDGE_CURVE('',#562,#563,#672,.T.);
#425=EDGE_CURVE('',#563,#561,#673,.T.);
#426=EDGE_CURVE('',#560,#564,#674,.T.);
#427=EDGE_CURVE('',#565,#564,#675,.T.);
#428=EDGE_CURVE('',#562,#565,#676,.T.);
#429=EDGE_CURVE('',#564,#566,#677,.T.);
#430=EDGE_CURVE('',#567,#566,#678,.T.);
#431=EDGE_CURVE('',#565,#567,#679,.T.);
#432=EDGE_CURVE('',#568,#569,#680,.T.);
#433=EDGE_CURVE('',#570,#568,#681,.T.);
#434=EDGE_CURVE('',#570,#571,#682,.T.);
#435=EDGE_CURVE('',#571,#569,#683,.T.);
#436=EDGE_CURVE('',#568,#572,#684,.T.);
#437=EDGE_CURVE('',#573,#572,#685,.T.);
#438=EDGE_CURVE('',#570,#573,#686,.T.);
#439=EDGE_CURVE('',#572,#574,#687,.T.);
#440=EDGE_CURVE('',#575,#574,#688,.T.);
#441=EDGE_CURVE('',#573,#575,#689,.T.);
#442=EDGE_CURVE('',#576,#577,#690,.T.);
#443=EDGE_CURVE('',#578,#576,#691,.T.);
#444=EDGE_CURVE('',#578,#579,#692,.T.);
#445=EDGE_CURVE('',#579,#577,#693,.T.);
#446=EDGE_CURVE('',#576,#580,#694,.T.);
#447=EDGE_CURVE('',#581,#580,#695,.T.);
#448=EDGE_CURVE('',#578,#581,#696,.T.);
#449=EDGE_CURVE('',#580,#582,#697,.T.);
#450=EDGE_CURVE('',#583,#582,#698,.T.);
#451=EDGE_CURVE('',#581,#583,#699,.T.);
#452=EDGE_CURVE('',#584,#585,#700,.T.);
#453=EDGE_CURVE('',#586,#584,#701,.T.);
#454=EDGE_CURVE('',#586,#587,#702,.T.);
#455=EDGE_CURVE('',#587,#585,#703,.T.);
#456=EDGE_CURVE('',#588,#584,#704,.T.);
#457=EDGE_CURVE('',#589,#588,#705,.T.);
#458=EDGE_CURVE('',#589,#586,#706,.T.);
#459=EDGE_CURVE('',#588,#590,#707,.T.);
#460=EDGE_CURVE('',#591,#590,#708,.T.);
#461=EDGE_CURVE('',#589,#591,#709,.T.);
#462=EDGE_CURVE('',#592,#593,#710,.T.);
#463=EDGE_CURVE('',#594,#592,#711,.T.);
#464=EDGE_CURVE('',#594,#595,#712,.T.);
#465=EDGE_CURVE('',#595,#593,#713,.T.);
#466=EDGE_CURVE('',#596,#592,#714,.T.);
#467=EDGE_CURVE('',#597,#596,#715,.T.);
#468=EDGE_CURVE('',#597,#594,#716,.T.);
#469=EDGE_CURVE('',#596,#598,#717,.T.);
#470=EDGE_CURVE('',#599,#598,#718,.T.);
#471=EDGE_CURVE('',#597,#599,#719,.T.);
#472=EDGE_CURVE('',#600,#601,#720,.T.);
#473=EDGE_CURVE('',#602,#600,#721,.T.);
#474=EDGE_CURVE('',#602,#603,#722,.T.);
#475=EDGE_CURVE('',#603,#601,#723,.T.);
#476=EDGE_CURVE('',#604,#600,#724,.T.);
#477=EDGE_CURVE('',#605,#604,#725,.T.);
#478=EDGE_CURVE('',#605,#602,#726,.T.);
#479=EDGE_CURVE('',#604,#606,#727,.T.);
#480=EDGE_CURVE('',#607,#606,#728,.T.);
#481=EDGE_CURVE('',#605,#607,#729,.T.);
#482=EDGE_CURVE('',#537,#542,#730,.T.);
#483=EDGE_CURVE('',#539,#543,#731,.T.);
#484=EDGE_CURVE('',#545,#550,#732,.T.);
#485=EDGE_CURVE('',#547,#551,#733,.T.);
#486=EDGE_CURVE('',#553,#558,#734,.T.);
#487=EDGE_CURVE('',#555,#559,#735,.T.);
#488=EDGE_CURVE('',#561,#566,#736,.T.);
#489=EDGE_CURVE('',#563,#567,#737,.T.);
#490=EDGE_CURVE('',#569,#574,#738,.T.);
#491=EDGE_CURVE('',#571,#575,#739,.T.);
#492=EDGE_CURVE('',#577,#582,#740,.T.);
#493=EDGE_CURVE('',#579,#583,#741,.T.);
#494=EDGE_CURVE('',#590,#585,#742,.T.);
#495=EDGE_CURVE('',#591,#587,#743,.T.);
#496=EDGE_CURVE('',#598,#593,#744,.T.);
#497=EDGE_CURVE('',#599,#595,#745,.T.);
#498=EDGE_CURVE('',#606,#601,#746,.T.);
#499=EDGE_CURVE('',#607,#603,#747,.T.);
#500=EDGE_CURVE('',#521,#532,#32,.T.);
#501=EDGE_CURVE('',#532,#510,#33,.T.);
#502=EDGE_CURVE('',#533,#509,#34,.T.);
#503=EDGE_CURVE('',#522,#535,#35,.T.);
#504=EDGE_CURVE('',#533,#514,#36,.T.);
#505=EDGE_CURVE('',#517,#535,#37,.T.);
#506=EDGE_CURVE('',#534,#513,#38,.T.);
#507=EDGE_CURVE('',#518,#534,#39,.T.);
#508=VERTEX_POINT('',#1578);
#509=VERTEX_POINT('',#1579);
#510=VERTEX_POINT('',#1581);
#511=VERTEX_POINT('',#1583);
#512=VERTEX_POINT('',#1587);
#513=VERTEX_POINT('',#1588);
#514=VERTEX_POINT('',#1590);
#515=VERTEX_POINT('',#1592);
#516=VERTEX_POINT('',#1596);
#517=VERTEX_POINT('',#1597);
#518=VERTEX_POINT('',#1599);
#519=VERTEX_POINT('',#1601);
#520=VERTEX_POINT('',#1605);
#521=VERTEX_POINT('',#1606);
#522=VERTEX_POINT('',#1608);
#523=VERTEX_POINT('',#1610);
#524=VERTEX_POINT('',#1619);
#525=VERTEX_POINT('',#1620);
#526=VERTEX_POINT('',#1622);
#527=VERTEX_POINT('',#1624);
#528=VERTEX_POINT('',#1628);
#529=VERTEX_POINT('',#1630);
#530=VERTEX_POINT('',#1634);
#531=VERTEX_POINT('',#1636);
#532=VERTEX_POINT('',#1643);
#533=VERTEX_POINT('',#1644);
#534=VERTEX_POINT('',#1646);
#535=VERTEX_POINT('',#1648);
#536=VERTEX_POINT('',#1660);
#537=VERTEX_POINT('',#1661);
#538=VERTEX_POINT('',#1663);
#539=VERTEX_POINT('',#1665);
#540=VERTEX_POINT('',#1669);
#541=VERTEX_POINT('',#1671);
#542=VERTEX_POINT('',#1675);
#543=VERTEX_POINT('',#1677);
#544=VERTEX_POINT('',#1681);
#545=VERTEX_POINT('',#1682);
#546=VERTEX_POINT('',#1684);
#547=VERTEX_POINT('',#1686);
#548=VERTEX_POINT('',#1690);
#549=VERTEX_POINT('',#1692);
#550=VERTEX_POINT('',#1696);
#551=VERTEX_POINT('',#1698);
#552=VERTEX_POINT('',#1702);
#553=VERTEX_POINT('',#1703);
#554=VERTEX_POINT('',#1705);
#555=VERTEX_POINT('',#1707);
#556=VERTEX_POINT('',#1711);
#557=VERTEX_POINT('',#1713);
#558=VERTEX_POINT('',#1717);
#559=VERTEX_POINT('',#1719);
#560=VERTEX_POINT('',#1723);
#561=VERTEX_POINT('',#1724);
#562=VERTEX_POINT('',#1726);
#563=VERTEX_POINT('',#1728);
#564=VERTEX_POINT('',#1732);
#565=VERTEX_POINT('',#1734);
#566=VERTEX_POINT('',#1738);
#567=VERTEX_POINT('',#1740);
#568=VERTEX_POINT('',#1744);
#569=VERTEX_POINT('',#1745);
#570=VERTEX_POINT('',#1747);
#571=VERTEX_POINT('',#1749);
#572=VERTEX_POINT('',#1753);
#573=VERTEX_POINT('',#1755);
#574=VERTEX_POINT('',#1759);
#575=VERTEX_POINT('',#1761);
#576=VERTEX_POINT('',#1765);
#577=VERTEX_POINT('',#1766);
#578=VERTEX_POINT('',#1768);
#579=VERTEX_POINT('',#1770);
#580=VERTEX_POINT('',#1774);
#581=VERTEX_POINT('',#1776);
#582=VERTEX_POINT('',#1780);
#583=VERTEX_POINT('',#1782);
#584=VERTEX_POINT('',#1786);
#585=VERTEX_POINT('',#1787);
#586=VERTEX_POINT('',#1789);
#587=VERTEX_POINT('',#1791);
#588=VERTEX_POINT('',#1795);
#589=VERTEX_POINT('',#1797);
#590=VERTEX_POINT('',#1801);
#591=VERTEX_POINT('',#1803);
#592=VERTEX_POINT('',#1807);
#593=VERTEX_POINT('',#1808);
#594=VERTEX_POINT('',#1810);
#595=VERTEX_POINT('',#1812);
#596=VERTEX_POINT('',#1816);
#597=VERTEX_POINT('',#1818);
#598=VERTEX_POINT('',#1822);
#599=VERTEX_POINT('',#1824);
#600=VERTEX_POINT('',#1828);
#601=VERTEX_POINT('',#1829);
#602=VERTEX_POINT('',#1831);
#603=VERTEX_POINT('',#1833);
#604=VERTEX_POINT('',#1837);
#605=VERTEX_POINT('',#1839);
#606=VERTEX_POINT('',#1843);
#607=VERTEX_POINT('',#1845);
#608=LINE('',#1577,#748);
#609=LINE('',#1580,#749);
#610=LINE('',#1582,#750);
#611=LINE('',#1584,#751);
#612=LINE('',#1586,#752);
#613=LINE('',#1589,#753);
#614=LINE('',#1591,#754);
#615=LINE('',#1593,#755);
#616=LINE('',#1595,#756);
#617=LINE('',#1598,#757);
#618=LINE('',#1600,#758);
#619=LINE('',#1602,#759);
#620=LINE('',#1604,#760);
#621=LINE('',#1607,#761);
#622=LINE('',#1609,#762);
#623=LINE('',#1611,#763);
#624=LINE('',#1618,#764);
#625=LINE('',#1621,#765);
#626=LINE('',#1623,#766);
#627=LINE('',#1625,#767);
#628=LINE('',#1627,#768);
#629=LINE('',#1629,#769);
#630=LINE('',#1631,#770);
#631=LINE('',#1633,#771);
#632=LINE('',#1635,#772);
#633=LINE('',#1637,#773);
#634=LINE('',#1639,#774);
#635=LINE('',#1640,#775);
#636=LINE('',#1642,#776);
#637=LINE('',#1645,#777);
#638=LINE('',#1647,#778);
#639=LINE('',#1649,#779);
#640=LINE('',#1659,#780);
#641=LINE('',#1662,#781);
#642=LINE('',#1664,#782);
#643=LINE('',#1666,#783);
#644=LINE('',#1668,#784);
#645=LINE('',#1670,#785);
#646=LINE('',#1672,#786);
#647=LINE('',#1674,#787);
#648=LINE('',#1676,#788);
#649=LINE('',#1678,#789);
#650=LINE('',#1680,#790);
#651=LINE('',#1683,#791);
#652=LINE('',#1685,#792);
#653=LINE('',#1687,#793);
#654=LINE('',#1689,#794);
#655=LINE('',#1691,#795);
#656=LINE('',#1693,#796);
#657=LINE('',#1695,#797);
#658=LINE('',#1697,#798);
#659=LINE('',#1699,#799);
#660=LINE('',#1701,#800);
#661=LINE('',#1704,#801);
#662=LINE('',#1706,#802);
#663=LINE('',#1708,#803);
#664=LINE('',#1710,#804);
#665=LINE('',#1712,#805);
#666=LINE('',#1714,#806);
#667=LINE('',#1716,#807);
#668=LINE('',#1718,#808);
#669=LINE('',#1720,#809);
#670=LINE('',#1722,#810);
#671=LINE('',#1725,#811);
#672=LINE('',#1727,#812);
#673=LINE('',#1729,#813);
#674=LINE('',#1731,#814);
#675=LINE('',#1733,#815);
#676=LINE('',#1735,#816);
#677=LINE('',#1737,#817);
#678=LINE('',#1739,#818);
#679=LINE('',#1741,#819);
#680=LINE('',#1743,#820);
#681=LINE('',#1746,#821);
#682=LINE('',#1748,#822);
#683=LINE('',#1750,#823);
#684=LINE('',#1752,#824);
#685=LINE('',#1754,#825);
#686=LINE('',#1756,#826);
#687=LINE('',#1758,#827);
#688=LINE('',#1760,#828);
#689=LINE('',#1762,#829);
#690=LINE('',#1764,#830);
#691=LINE('',#1767,#831);
#692=LINE('',#1769,#832);
#693=LINE('',#1771,#833);
#694=LINE('',#1773,#834);
#695=LINE('',#1775,#835);
#696=LINE('',#1777,#836);
#697=LINE('',#1779,#837);
#698=LINE('',#1781,#838);
#699=LINE('',#1783,#839);
#700=LINE('',#1785,#840);
#701=LINE('',#1788,#841);
#702=LINE('',#1790,#842);
#703=LINE('',#1792,#843);
#704=LINE('',#1794,#844);
#705=LINE('',#1796,#845);
#706=LINE('',#1798,#846);
#707=LINE('',#1800,#847);
#708=LINE('',#1802,#848);
#709=LINE('',#1804,#849);
#710=LINE('',#1806,#850);
#711=LINE('',#1809,#851);
#712=LINE('',#1811,#852);
#713=LINE('',#1813,#853);
#714=LINE('',#1815,#854);
#715=LINE('',#1817,#855);
#716=LINE('',#1819,#856);
#717=LINE('',#1821,#857);
#718=LINE('',#1823,#858);
#719=LINE('',#1825,#859);
#720=LINE('',#1827,#860);
#721=LINE('',#1830,#861);
#722=LINE('',#1832,#862);
#723=LINE('',#1834,#863);
#724=LINE('',#1836,#864);
#725=LINE('',#1838,#865);
#726=LINE('',#1840,#866);
#727=LINE('',#1842,#867);
#728=LINE('',#1844,#868);
#729=LINE('',#1846,#869);
#730=LINE('',#1848,#870);
#731=LINE('',#1849,#871);
#732=LINE('',#1851,#872);
#733=LINE('',#1852,#873);
#734=LINE('',#1854,#874);
#735=LINE('',#1855,#875);
#736=LINE('',#1857,#876);
#737=LINE('',#1858,#877);
#738=LINE('',#1860,#878);
#739=LINE('',#1861,#879);
#740=LINE('',#1863,#880);
#741=LINE('',#1864,#881);
#742=LINE('',#1866,#882);
#743=LINE('',#1867,#883);
#744=LINE('',#1869,#884);
#745=LINE('',#1870,#885);
#746=LINE('',#1872,#886);
#747=LINE('',#1873,#887);
#748=VECTOR('',#1269,1.);
#749=VECTOR('',#1270,1.);
#750=VECTOR('',#1271,1.);
#751=VECTOR('',#1272,1.);
#752=VECTOR('',#1275,1.);
#753=VECTOR('',#1276,1.);
#754=VECTOR('',#1277,1.);
#755=VECTOR('',#1278,1.);
#756=VECTOR('',#1281,1.);
#757=VECTOR('',#1282,1.);
#758=VECTOR('',#1283,1.);
#759=VECTOR('',#1284,1.);
#760=VECTOR('',#1287,1.);
#761=VECTOR('',#1288,1.);
#762=VECTOR('',#1289,1.);
#763=VECTOR('',#1290,1.);
#764=VECTOR('',#1303,1.);
#765=VECTOR('',#1304,1.);
#766=VECTOR('',#1305,1.);
#767=VECTOR('',#1306,1.);
#768=VECTOR('',#1309,1.);
#769=VECTOR('',#1310,1.);
#770=VECTOR('',#1311,1.);
#771=VECTOR('',#1314,1.);
#772=VECTOR('',#1315,1.);
#773=VECTOR('',#1316,1.);
#774=VECTOR('',#1319,1.);
#775=VECTOR('',#1320,1.);
#776=VECTOR('',#1323,1.);
#777=VECTOR('',#1324,1.);
#778=VECTOR('',#1325,1.);
#779=VECTOR('',#1326,1.);
#780=VECTOR('',#1345,1.);
#781=VECTOR('',#1346,1.);
#782=VECTOR('',#1347,1.);
#783=VECTOR('',#1348,1.);
#784=VECTOR('',#1351,1.);
#785=VECTOR('',#1352,1.);
#786=VECTOR('',#1353,1.);
#787=VECTOR('',#1356,1.);
#788=VECTOR('',#1357,1.);
#789=VECTOR('',#1358,1.);
#790=VECTOR('',#1361,1.);
#791=VECTOR('',#1362,1.);
#792=VECTOR('',#1363,1.);
#793=VECTOR('',#1364,1.);
#794=VECTOR('',#1367,1.);
#795=VECTOR('',#1368,1.);
#796=VECTOR('',#1369,1.);
#797=VECTOR('',#1372,1.);
#798=VECTOR('',#1373,1.);
#799=VECTOR('',#1374,1.);
#800=VECTOR('',#1377,1.);
#801=VECTOR('',#1378,1.);
#802=VECTOR('',#1379,1.);
#803=VECTOR('',#1380,1.);
#804=VECTOR('',#1383,1.);
#805=VECTOR('',#1384,1.);
#806=VECTOR('',#1385,1.);
#807=VECTOR('',#1388,1.);
#808=VECTOR('',#1389,1.);
#809=VECTOR('',#1390,1.);
#810=VECTOR('',#1393,1.);
#811=VECTOR('',#1394,1.);
#812=VECTOR('',#1395,1.);
#813=VECTOR('',#1396,1.);
#814=VECTOR('',#1399,1.);
#815=VECTOR('',#1400,1.);
#816=VECTOR('',#1401,1.);
#817=VECTOR('',#1404,1.);
#818=VECTOR('',#1405,1.);
#819=VECTOR('',#1406,1.);
#820=VECTOR('',#1409,1.);
#821=VECTOR('',#1410,1.);
#822=VECTOR('',#1411,1.);
#823=VECTOR('',#1412,1.);
#824=VECTOR('',#1415,1.);
#825=VECTOR('',#1416,1.);
#826=VECTOR('',#1417,1.);
#827=VECTOR('',#1420,1.);
#828=VECTOR('',#1421,1.);
#829=VECTOR('',#1422,1.);
#830=VECTOR('',#1425,1.);
#831=VECTOR('',#1426,1.);
#832=VECTOR('',#1427,1.);
#833=VECTOR('',#1428,1.);
#834=VECTOR('',#1431,1.);
#835=VECTOR('',#1432,1.);
#836=VECTOR('',#1433,1.);
#837=VECTOR('',#1436,1.);
#838=VECTOR('',#1437,1.);
#839=VECTOR('',#1438,1.);
#840=VECTOR('',#1441,1.);
#841=VECTOR('',#1442,1.);
#842=VECTOR('',#1443,1.);
#843=VECTOR('',#1444,1.);
#844=VECTOR('',#1447,1.);
#845=VECTOR('',#1448,1.);
#846=VECTOR('',#1449,1.);
#847=VECTOR('',#1452,1.);
#848=VECTOR('',#1453,1.);
#849=VECTOR('',#1454,1.);
#850=VECTOR('',#1457,1.);
#851=VECTOR('',#1458,1.);
#852=VECTOR('',#1459,1.);
#853=VECTOR('',#1460,1.);
#854=VECTOR('',#1463,1.);
#855=VECTOR('',#1464,1.);
#856=VECTOR('',#1465,1.);
#857=VECTOR('',#1468,1.);
#858=VECTOR('',#1469,1.);
#859=VECTOR('',#1470,1.);
#860=VECTOR('',#1473,1.);
#861=VECTOR('',#1474,1.);
#862=VECTOR('',#1475,1.);
#863=VECTOR('',#1476,1.);
#864=VECTOR('',#1479,1.);
#865=VECTOR('',#1480,1.);
#866=VECTOR('',#1481,1.);
#867=VECTOR('',#1484,1.);
#868=VECTOR('',#1485,1.);
#869=VECTOR('',#1486,1.);
#870=VECTOR('',#1489,1.);
#871=VECTOR('',#1490,1.);
#872=VECTOR('',#1493,1.);
#873=VECTOR('',#1494,1.);
#874=VECTOR('',#1497,1.);
#875=VECTOR('',#1498,1.);
#876=VECTOR('',#1501,1.);
#877=VECTOR('',#1502,1.);
#878=VECTOR('',#1505,1.);
#879=VECTOR('',#1506,1.);
#880=VECTOR('',#1509,1.);
#881=VECTOR('',#1510,1.);
#882=VECTOR('',#1513,1.);
#883=VECTOR('',#1514,1.);
#884=VECTOR('',#1517,1.);
#885=VECTOR('',#1518,1.);
#886=VECTOR('',#1521,1.);
#887=VECTOR('',#1522,1.);
#888=EDGE_LOOP('',(#40,#41,#42,#43));
#889=EDGE_LOOP('',(#44,#45,#46,#47));
#890=EDGE_LOOP('',(#48,#49,#50,#51));
#891=EDGE_LOOP('',(#52,#53,#54,#55));
#892=EDGE_LOOP('',(#56,#57,#58,#59,#60,#61,#62,#63));
#893=EDGE_LOOP('',(#64,#65,#66,#67));
#894=EDGE_LOOP('',(#68,#69,#70,#71));
#895=EDGE_LOOP('',(#72,#73,#74,#75));
#896=EDGE_LOOP('',(#76,#77,#78,#79));
#897=EDGE_LOOP('',(#80,#81,#82,#83));
#898=EDGE_LOOP('',(#84,#85,#86,#87));
#899=EDGE_LOOP('',(#88,#89,#90,#91));
#900=EDGE_LOOP('',(#92,#93,#94,#95));
#901=EDGE_LOOP('',(#96,#97,#98,#99));
#902=EDGE_LOOP('',(#100,#101,#102,#103));
#903=EDGE_LOOP('',(#104,#105,#106,#107));
#904=EDGE_LOOP('',(#108,#109,#110,#111));
#905=EDGE_LOOP('',(#112,#113,#114,#115));
#906=EDGE_LOOP('',(#116,#117,#118,#119));
#907=EDGE_LOOP('',(#120,#121,#122,#123));
#908=EDGE_LOOP('',(#124,#125,#126,#127));
#909=EDGE_LOOP('',(#128,#129,#130,#131));
#910=EDGE_LOOP('',(#132,#133,#134,#135));
#911=EDGE_LOOP('',(#136,#137,#138,#139));
#912=EDGE_LOOP('',(#140,#141,#142,#143));
#913=EDGE_LOOP('',(#144,#145,#146,#147));
#914=EDGE_LOOP('',(#148,#149,#150,#151));
#915=EDGE_LOOP('',(#152,#153,#154,#155));
#916=EDGE_LOOP('',(#156,#157,#158,#159));
#917=EDGE_LOOP('',(#160,#161,#162,#163));
#918=EDGE_LOOP('',(#164,#165,#166,#167));
#919=EDGE_LOOP('',(#168,#169,#170,#171));
#920=EDGE_LOOP('',(#172,#173,#174,#175));
#921=EDGE_LOOP('',(#176,#177,#178,#179));
#922=EDGE_LOOP('',(#180,#181,#182,#183));
#923=EDGE_LOOP('',(#184,#185,#186,#187));
#924=EDGE_LOOP('',(#188,#189,#190,#191));
#925=EDGE_LOOP('',(#192,#193,#194,#195));
#926=EDGE_LOOP('',(#196,#197,#198,#199));
#927=EDGE_LOOP('',(#200,#201,#202,#203));
#928=EDGE_LOOP('',(#204,#205,#206,#207));
#929=EDGE_LOOP('',(#208,#209,#210,#211));
#930=EDGE_LOOP('',(#212,#213,#214,#215));
#931=EDGE_LOOP('',(#216,#217,#218,#219));
#932=EDGE_LOOP('',(#220,#221,#222,#223));
#933=EDGE_LOOP('',(#224,#225,#226,#227));
#934=EDGE_LOOP('',(#228,#229,#230,#231));
#935=EDGE_LOOP('',(#232,#233,#234,#235));
#936=EDGE_LOOP('',(#236,#237,#238,#239));
#937=EDGE_LOOP('',(#240,#241,#242,#243));
#938=EDGE_LOOP('',(#244,#245,#246,#247));
#939=EDGE_LOOP('',(#248,#249,#250,#251));
#940=EDGE_LOOP('',(#252,#253,#254,#255));
#941=EDGE_LOOP('',(#256,#257,#258,#259));
#942=EDGE_LOOP('',(#260,#261,#262,#263));
#943=EDGE_LOOP('',(#264,#265,#266,#267));
#944=EDGE_LOOP('',(#268,#269,#270,#271));
#945=EDGE_LOOP('',(#272,#273,#274,#275));
#946=EDGE_LOOP('',(#276,#277,#278,#279));
#947=EDGE_LOOP('',(#280,#281,#282,#283));
#948=EDGE_LOOP('',(#284,#285,#286,#287));
#949=EDGE_LOOP('',(#288,#289,#290,#291));
#950=EDGE_LOOP('',(#292,#293,#294,#295));
#951=EDGE_LOOP('',(#296,#297,#298,#299));
#952=EDGE_LOOP('',(#300,#301,#302,#303));
#953=EDGE_LOOP('',(#304,#305,#306,#307));
#954=EDGE_LOOP('',(#308,#309,#310,#311));
#955=EDGE_LOOP('',(#312,#313,#314,#315));
#956=EDGE_LOOP('',(#316,#317,#318,#319));
#957=EDGE_LOOP('',(#320,#321,#322,#323));
#958=EDGE_LOOP('',(#324,#325,#326));
#959=EDGE_LOOP('',(#327,#328,#329,#330));
#960=EDGE_LOOP('',(#331,#332,#333,#334));
#961=EDGE_LOOP('',(#335,#336,#337));
#962=EDGE_LOOP('',(#338,#339,#340));
#963=EDGE_LOOP('',(#341,#342,#343,#344));
#964=EDGE_LOOP('',(#345,#346,#347,#348));
#965=EDGE_LOOP('',(#349,#350,#351));
#966=FACE_BOUND('',#888,.T.);
#967=FACE_BOUND('',#889,.T.);
#968=FACE_BOUND('',#890,.T.);
#969=FACE_BOUND('',#891,.T.);
#970=FACE_BOUND('',#892,.T.);
#971=FACE_BOUND('',#893,.T.);
#972=FACE_BOUND('',#894,.T.);
#973=FACE_BOUND('',#895,.T.);
#974=FACE_BOUND('',#896,.T.);
#975=FACE_BOUND('',#897,.T.);
#976=FACE_BOUND('',#898,.T.);
#977=FACE_BOUND('',#899,.T.);
#978=FACE_BOUND('',#900,.T.);
#979=FACE_BOUND('',#901,.T.);
#980=FACE_BOUND('',#902,.T.);
#981=FACE_BOUND('',#903,.T.);
#982=FACE_BOUND('',#904,.T.);
#983=FACE_BOUND('',#905,.T.);
#984=FACE_BOUND('',#906,.T.);
#985=FACE_BOUND('',#907,.T.);
#986=FACE_BOUND('',#908,.T.);
#987=FACE_BOUND('',#909,.T.);
#988=FACE_BOUND('',#910,.T.);
#989=FACE_BOUND('',#911,.T.);
#990=FACE_BOUND('',#912,.T.);
#991=FACE_BOUND('',#913,.T.);
#992=FACE_BOUND('',#914,.T.);
#993=FACE_BOUND('',#915,.T.);
#994=FACE_BOUND('',#916,.T.);
#995=FACE_BOUND('',#917,.T.);
#996=FACE_BOUND('',#918,.T.);
#997=FACE_BOUND('',#919,.T.);
#998=FACE_BOUND('',#920,.T.);
#999=FACE_BOUND('',#921,.T.);
#1000=FACE_BOUND('',#922,.T.);
#1001=FACE_BOUND('',#923,.T.);
#1002=FACE_BOUND('',#924,.T.);
#1003=FACE_BOUND('',#925,.T.);
#1004=FACE_BOUND('',#926,.T.);
#1005=FACE_BOUND('',#927,.T.);
#1006=FACE_BOUND('',#928,.T.);
#1007=FACE_BOUND('',#929,.T.);
#1008=FACE_BOUND('',#930,.T.);
#1009=FACE_BOUND('',#931,.T.);
#1010=FACE_BOUND('',#932,.T.);
#1011=FACE_BOUND('',#933,.T.);
#1012=FACE_BOUND('',#934,.T.);
#1013=FACE_BOUND('',#935,.T.);
#1014=FACE_BOUND('',#936,.T.);
#1015=FACE_BOUND('',#937,.T.);
#1016=FACE_BOUND('',#938,.T.);
#1017=FACE_BOUND('',#939,.T.);
#1018=FACE_BOUND('',#940,.T.);
#1019=FACE_BOUND('',#941,.T.);
#1020=FACE_BOUND('',#942,.T.);
#1021=FACE_BOUND('',#943,.T.);
#1022=FACE_BOUND('',#944,.T.);
#1023=FACE_BOUND('',#945,.T.);
#1024=FACE_BOUND('',#946,.T.);
#1025=FACE_BOUND('',#947,.T.);
#1026=FACE_BOUND('',#948,.T.);
#1027=FACE_BOUND('',#949,.T.);
#1028=FACE_BOUND('',#950,.T.);
#1029=FACE_BOUND('',#951,.T.);
#1030=FACE_BOUND('',#952,.T.);
#1031=FACE_BOUND('',#953,.T.);
#1032=FACE_BOUND('',#954,.T.);
#1033=FACE_BOUND('',#955,.T.);
#1034=FACE_BOUND('',#956,.T.);
#1035=FACE_BOUND('',#957,.T.);
#1036=FACE_BOUND('',#958,.T.);
#1037=FACE_BOUND('',#959,.T.);
#1038=FACE_BOUND('',#960,.T.);
#1039=FACE_BOUND('',#961,.T.);
#1040=FACE_BOUND('',#962,.T.);
#1041=FACE_BOUND('',#963,.T.);
#1042=FACE_BOUND('',#964,.T.);
#1043=FACE_BOUND('',#965,.T.);
#1044=PLANE('',#1181);
#1045=PLANE('',#1182);
#1046=PLANE('',#1183);
#1047=PLANE('',#1184);
#1048=PLANE('',#1185);
#1049=PLANE('',#1190);
#1050=PLANE('',#1191);
#1051=PLANE('',#1192);
#1052=PLANE('',#1193);
#1053=PLANE('',#1194);
#1054=PLANE('',#1203);
#1055=PLANE('',#1204);
#1056=PLANE('',#1205);
#1057=PLANE('',#1206);
#1058=PLANE('',#1207);
#1059=PLANE('',#1208);
#1060=PLANE('',#1209);
#1061=PLANE('',#1210);
#1062=PLANE('',#1211);
#1063=PLANE('',#1212);
#1064=PLANE('',#1213);
#1065=PLANE('',#1214);
#1066=PLANE('',#1215);
#1067=PLANE('',#1216);
#1068=PLANE('',#1217);
#1069=PLANE('',#1218);
#1070=PLANE('',#1219);
#1071=PLANE('',#1220);
#1072=PLANE('',#1221);
#1073=PLANE('',#1222);
#1074=PLANE('',#1223);
#1075=PLANE('',#1224);
#1076=PLANE('',#1225);
#1077=PLANE('',#1226);
#1078=PLANE('',#1227);
#1079=PLANE('',#1228);
#1080=PLANE('',#1229);
#1081=PLANE('',#1230);
#1082=PLANE('',#1231);
#1083=PLANE('',#1232);
#1084=PLANE('',#1233);
#1085=PLANE('',#1234);
#1086=PLANE('',#1235);
#1087=PLANE('',#1236);
#1088=PLANE('',#1237);
#1089=PLANE('',#1238);
#1090=PLANE('',#1239);
#1091=PLANE('',#1240);
#1092=PLANE('',#1241);
#1093=PLANE('',#1242);
#1094=PLANE('',#1243);
#1095=PLANE('',#1244);
#1096=PLANE('',#1245);
#1097=PLANE('',#1246);
#1098=PLANE('',#1247);
#1099=PLANE('',#1248);
#1100=ADVANCED_FACE('',(#966),#1044,.T.);
#1101=ADVANCED_FACE('',(#967),#1045,.F.);
#1102=ADVANCED_FACE('',(#968),#1046,.F.);
#1103=ADVANCED_FACE('',(#969),#1047,.T.);
#1104=ADVANCED_FACE('',(#970),#1048,.F.);
#1105=ADVANCED_FACE('',(#971),#1049,.T.);
#1106=ADVANCED_FACE('',(#972),#1050,.T.);
#1107=ADVANCED_FACE('',(#973),#1051,.T.);
#1108=ADVANCED_FACE('',(#974),#1052,.T.);
#1109=ADVANCED_FACE('',(#975,#976),#1053,.T.);
#1110=ADVANCED_FACE('',(#977),#16,.T.);
#1111=ADVANCED_FACE('',(#978),#17,.T.);
#1112=ADVANCED_FACE('',(#979),#18,.T.);
#1113=ADVANCED_FACE('',(#980),#19,.T.);
#1114=ADVANCED_FACE('',(#981),#1054,.T.);
#1115=ADVANCED_FACE('',(#982),#1055,.F.);
#1116=ADVANCED_FACE('',(#983),#1056,.F.);
#1117=ADVANCED_FACE('',(#984),#1057,.T.);
#1118=ADVANCED_FACE('',(#985),#1058,.F.);
#1119=ADVANCED_FACE('',(#986),#1059,.F.);
#1120=ADVANCED_FACE('',(#987),#1060,.T.);
#1121=ADVANCED_FACE('',(#988),#1061,.F.);
#1122=ADVANCED_FACE('',(#989),#1062,.F.);
#1123=ADVANCED_FACE('',(#990),#1063,.T.);
#1124=ADVANCED_FACE('',(#991),#1064,.F.);
#1125=ADVANCED_FACE('',(#992),#1065,.F.);
#1126=ADVANCED_FACE('',(#993),#1066,.T.);
#1127=ADVANCED_FACE('',(#994),#1067,.F.);
#1128=ADVANCED_FACE('',(#995),#1068,.F.);
#1129=ADVANCED_FACE('',(#996),#1069,.T.);
#1130=ADVANCED_FACE('',(#997),#1070,.F.);
#1131=ADVANCED_FACE('',(#998),#1071,.F.);
#1132=ADVANCED_FACE('',(#999),#1072,.T.);
#1133=ADVANCED_FACE('',(#1000),#1073,.T.);
#1134=ADVANCED_FACE('',(#1001),#1074,.F.);
#1135=ADVANCED_FACE('',(#1002),#1075,.T.);
#1136=ADVANCED_FACE('',(#1003),#1076,.T.);
#1137=ADVANCED_FACE('',(#1004),#1077,.F.);
#1138=ADVANCED_FACE('',(#1005),#1078,.T.);
#1139=ADVANCED_FACE('',(#1006),#1079,.T.);
#1140=ADVANCED_FACE('',(#1007),#1080,.F.);
#1141=ADVANCED_FACE('',(#1008),#1081,.T.);
#1142=ADVANCED_FACE('',(#1009),#1082,.T.);
#1143=ADVANCED_FACE('',(#1010),#1083,.T.);
#1144=ADVANCED_FACE('',(#1011),#1084,.T.);
#1145=ADVANCED_FACE('',(#1012),#1085,.T.);
#1146=ADVANCED_FACE('',(#1013),#1086,.T.);
#1147=ADVANCED_FACE('',(#1014),#1087,.F.);
#1148=ADVANCED_FACE('',(#1015),#1088,.F.);
#1149=ADVANCED_FACE('',(#1016),#1089,.F.);
#1150=ADVANCED_FACE('',(#1017,#1018,#1019,#1020,#1021,#1022,#1023,#1024,
#1025,#1026),#1090,.T.);
#1151=ADVANCED_FACE('',(#1027),#1091,.T.);
#1152=ADVANCED_FACE('',(#1028),#1092,.T.);
#1153=ADVANCED_FACE('',(#1029),#1093,.T.);
#1154=ADVANCED_FACE('',(#1030),#1094,.T.);
#1155=ADVANCED_FACE('',(#1031),#1095,.T.);
#1156=ADVANCED_FACE('',(#1032),#1096,.T.);
#1157=ADVANCED_FACE('',(#1033),#1097,.T.);
#1158=ADVANCED_FACE('',(#1034),#1098,.T.);
#1159=ADVANCED_FACE('',(#1035),#1099,.T.);
#1160=ADVANCED_FACE('',(#1036),#12,.T.);
#1161=ADVANCED_FACE('',(#1037),#20,.T.);
#1162=ADVANCED_FACE('',(#1038),#21,.T.);
#1163=ADVANCED_FACE('',(#1039),#13,.T.);
#1164=ADVANCED_FACE('',(#1040),#14,.T.);
#1165=ADVANCED_FACE('',(#1041),#22,.T.);
#1166=ADVANCED_FACE('',(#1042),#23,.T.);
#1167=ADVANCED_FACE('',(#1043),#15,.T.);
#1168=CLOSED_SHELL('',(#1100,#1101,#1102,#1103,#1104,#1105,#1106,#1107,
#1108,#1109,#1110,#1111,#1112,#1113,#1114,#1115,#1116,#1117,#1118,#1119,
#1120,#1121,#1122,#1123,#1124,#1125,#1126,#1127,#1128,#1129,#1130,#1131,
#1132,#1133,#1134,#1135,#1136,#1137,#1138,#1139,#1140,#1141,#1142,#1143,
#1144,#1145,#1146,#1147,#1148,#1149,#1150,#1151,#1152,#1153,#1154,#1155,
#1156,#1157,#1158,#1159,#1160,#1161,#1162,#1163,#1164,#1165,#1166,#1167));
#1169=STYLED_ITEM('',(#1170),#1177);
#1170=PRESENTATION_STYLE_ASSIGNMENT((#1171));
#1171=SURFACE_STYLE_USAGE(.BOTH.,#1172);
#1172=SURFACE_SIDE_STYLE('',(#1173));
#1173=SURFACE_STYLE_FILL_AREA(#1174);
#1174=FILL_AREA_STYLE('',(#1175));
#1175=FILL_AREA_STYLE_COLOUR('',#1176);
#1176=COLOUR_RGB('',0.615686274509804,0.811764705882353,0.929411764705882);
#1177=MANIFOLD_SOLID_BREP('Part 1',#1168);
#1178=SHAPE_DEFINITION_REPRESENTATION(#1906,#1179);
#1179=SHAPE_REPRESENTATION('Part 1',(#1180),#1901);
#1180=AXIS2_PLACEMENT_3D('',#1575,#1265,#1266);
#1181=AXIS2_PLACEMENT_3D('',#1576,#1267,#1268);
#1182=AXIS2_PLACEMENT_3D('',#1585,#1273,#1274);
#1183=AXIS2_PLACEMENT_3D('',#1594,#1279,#1280);
#1184=AXIS2_PLACEMENT_3D('',#1603,#1285,#1286);
#1185=AXIS2_PLACEMENT_3D('',#1612,#1291,#1292);
#1186=AXIS2_PLACEMENT_3D('',#1613,#1293,#1294);
#1187=AXIS2_PLACEMENT_3D('',#1614,#1295,#1296);
#1188=AXIS2_PLACEMENT_3D('',#1615,#1297,#1298);
#1189=AXIS2_PLACEMENT_3D('',#1616,#1299,#1300);
#1190=AXIS2_PLACEMENT_3D('',#1617,#1301,#1302);
#1191=AXIS2_PLACEMENT_3D('',#1626,#1307,#1308);
#1192=AXIS2_PLACEMENT_3D('',#1632,#1312,#1313);
#1193=AXIS2_PLACEMENT_3D('',#1638,#1317,#1318);
#1194=AXIS2_PLACEMENT_3D('',#1641,#1321,#1322);
#1195=AXIS2_PLACEMENT_3D('',#1650,#1327,#1328);
#1196=AXIS2_PLACEMENT_3D('',#1651,#1329,#1330);
#1197=AXIS2_PLACEMENT_3D('',#1652,#1331,#1332);
#1198=AXIS2_PLACEMENT_3D('',#1653,#1333,#1334);
#1199=AXIS2_PLACEMENT_3D('',#1654,#1335,#1336);
#1200=AXIS2_PLACEMENT_3D('',#1655,#1337,#1338);
#1201=AXIS2_PLACEMENT_3D('',#1656,#1339,#1340);
#1202=AXIS2_PLACEMENT_3D('',#1657,#1341,#1342);
#1203=AXIS2_PLACEMENT_3D('',#1658,#1343,#1344);
#1204=AXIS2_PLACEMENT_3D('',#1667,#1349,#1350);
#1205=AXIS2_PLACEMENT_3D('',#1673,#1354,#1355);
#1206=AXIS2_PLACEMENT_3D('',#1679,#1359,#1360);
#1207=AXIS2_PLACEMENT_3D('',#1688,#1365,#1366);
#1208=AXIS2_PLACEMENT_3D('',#1694,#1370,#1371);
#1209=AXIS2_PLACEMENT_3D('',#1700,#1375,#1376);
#1210=AXIS2_PLACEMENT_3D('',#1709,#1381,#1382);
#1211=AXIS2_PLACEMENT_3D('',#1715,#1386,#1387);
#1212=AXIS2_PLACEMENT_3D('',#1721,#1391,#1392);
#1213=AXIS2_PLACEMENT_3D('',#1730,#1397,#1398);
#1214=AXIS2_PLACEMENT_3D('',#1736,#1402,#1403);
#1215=AXIS2_PLACEMENT_3D('',#1742,#1407,#1408);
#1216=AXIS2_PLACEMENT_3D('',#1751,#1413,#1414);
#1217=AXIS2_PLACEMENT_3D('',#1757,#1418,#1419);
#1218=AXIS2_PLACEMENT_3D('',#1763,#1423,#1424);
#1219=AXIS2_PLACEMENT_3D('',#1772,#1429,#1430);
#1220=AXIS2_PLACEMENT_3D('',#1778,#1434,#1435);
#1221=AXIS2_PLACEMENT_3D('',#1784,#1439,#1440);
#1222=AXIS2_PLACEMENT_3D('',#1793,#1445,#1446);
#1223=AXIS2_PLACEMENT_3D('',#1799,#1450,#1451);
#1224=AXIS2_PLACEMENT_3D('',#1805,#1455,#1456);
#1225=AXIS2_PLACEMENT_3D('',#1814,#1461,#1462);
#1226=AXIS2_PLACEMENT_3D('',#1820,#1466,#1467);
#1227=AXIS2_PLACEMENT_3D('',#1826,#1471,#1472);
#1228=AXIS2_PLACEMENT_3D('',#1835,#1477,#1478);
#1229=AXIS2_PLACEMENT_3D('',#1841,#1482,#1483);
#1230=AXIS2_PLACEMENT_3D('',#1847,#1487,#1488);
#1231=AXIS2_PLACEMENT_3D('',#1850,#1491,#1492);
#1232=AXIS2_PLACEMENT_3D('',#1853,#1495,#1496);
#1233=AXIS2_PLACEMENT_3D('',#1856,#1499,#1500);
#1234=AXIS2_PLACEMENT_3D('',#1859,#1503,#1504);
#1235=AXIS2_PLACEMENT_3D('',#1862,#1507,#1508);
#1236=AXIS2_PLACEMENT_3D('',#1865,#1511,#1512);
#1237=AXIS2_PLACEMENT_3D('',#1868,#1515,#1516);
#1238=AXIS2_PLACEMENT_3D('',#1871,#1519,#1520);
#1239=AXIS2_PLACEMENT_3D('',#1874,#1523,#1524);
#1240=AXIS2_PLACEMENT_3D('',#1875,#1525,#1526);
#1241=AXIS2_PLACEMENT_3D('',#1876,#1527,#1528);
#1242=AXIS2_PLACEMENT_3D('',#1877,#1529,#1530);
#1243=AXIS2_PLACEMENT_3D('',#1878,#1531,#1532);
#1244=AXIS2_PLACEMENT_3D('',#1879,#1533,#1534);
#1245=AXIS2_PLACEMENT_3D('',#1880,#1535,#1536);
#1246=AXIS2_PLACEMENT_3D('',#1881,#1537,#1538);
#1247=AXIS2_PLACEMENT_3D('',#1882,#1539,#1540);
#1248=AXIS2_PLACEMENT_3D('',#1883,#1541,#1542);
#1249=AXIS2_PLACEMENT_3D('',#1884,#1543,#1544);
#1250=AXIS2_PLACEMENT_3D('',#1885,#1545,#1546);
#1251=AXIS2_PLACEMENT_3D('',#1886,#1547,#1548);
#1252=AXIS2_PLACEMENT_3D('',#1887,#1549,#1550);
#1253=AXIS2_PLACEMENT_3D('',#1888,#1551,#1552);
#1254=AXIS2_PLACEMENT_3D('',#1889,#1553,#1554);
#1255=AXIS2_PLACEMENT_3D('',#1890,#1555,#1556);
#1256=AXIS2_PLACEMENT_3D('',#1891,#1557,#1558);
#1257=AXIS2_PLACEMENT_3D('',#1892,#1559,#1560);
#1258=AXIS2_PLACEMENT_3D('',#1893,#1561,#1562);
#1259=AXIS2_PLACEMENT_3D('',#1894,#1563,#1564);
#1260=AXIS2_PLACEMENT_3D('',#1895,#1565,#1566);
#1261=AXIS2_PLACEMENT_3D('',#1896,#1567,#1568);
#1262=AXIS2_PLACEMENT_3D('',#1897,#1569,#1570);
#1263=AXIS2_PLACEMENT_3D('',#1898,#1571,#1572);
#1264=AXIS2_PLACEMENT_3D('',#1899,#1573,#1574);
#1265=DIRECTION('',(0.,0.,1.));
#1266=DIRECTION('',(1.,0.,0.));
#1267=DIRECTION('',(0.,1.,0.));
#1268=DIRECTION('',(0.,0.,1.));
#1269=DIRECTION('',(0.,0.,-1.));
#1270=DIRECTION('',(1.,0.,0.));
#1271=DIRECTION('',(0.,0.,-1.));
#1272=DIRECTION('',(1.,0.,0.));
#1273=DIRECTION('',(1.,0.,0.));
#1274=DIRECTION('',(0.,0.,-1.));
#1275=DIRECTION('',(0.,0.,-1.));
#1276=DIRECTION('',(0.,-1.,0.));
#1277=DIRECTION('',(0.,0.,-1.));
#1278=DIRECTION('',(0.,-1.,0.));
#1279=DIRECTION('',(0.,1.,0.));
#1280=DIRECTION('',(0.,0.,1.));
#1281=DIRECTION('',(0.,0.,-1.));
#1282=DIRECTION('',(1.,0.,0.));
#1283=DIRECTION('',(0.,0.,-1.));
#1284=DIRECTION('',(1.,0.,0.));
#1285=DIRECTION('',(1.,1.020425574104E-16,0.));
#1286=DIRECTION('',(-1.020425574104E-16,1.,0.));
#1287=DIRECTION('',(0.,0.,-1.));
#1288=DIRECTION('',(1.020425574104E-16,-1.,0.));
#1289=DIRECTION('',(0.,0.,-1.));
#1290=DIRECTION('',(1.020425574104E-16,-1.,0.));
#1291=DIRECTION('',(0.,0.,1.));
#1292=DIRECTION('',(1.,0.,0.));
#1293=DIRECTION('',(0.,0.,1.));
#1294=DIRECTION('',(1.,0.,0.));
#1295=DIRECTION('',(0.,0.,1.));
#1296=DIRECTION('',(1.,0.,0.));
#1297=DIRECTION('',(0.,0.,1.));
#1298=DIRECTION('',(1.,0.,0.));
#1299=DIRECTION('',(0.,0.,1.));
#1300=DIRECTION('',(1.,0.,0.));
#1301=DIRECTION('',(1.,0.,0.));
#1302=DIRECTION('',(0.,0.,-1.));
#1303=DIRECTION('',(0.,-1.,0.));
#1304=DIRECTION('',(0.,0.,-1.));
#1305=DIRECTION('',(0.,-1.,0.));
#1306=DIRECTION('',(0.,0.,-1.));
#1307=DIRECTION('',(1.19636101791504E-16,-1.,0.));
#1308=DIRECTION('',(1.,1.19636101791504E-16,0.));
#1309=DIRECTION('',(-1.,-1.19636101791504E-16,0.));
#1310=DIRECTION('',(0.,0.,-1.));
#1311=DIRECTION('',(-1.,-1.19636101791504E-16,0.));
#1312=DIRECTION('',(-1.,0.,0.));
#1313=DIRECTION('',(0.,0.,1.));
#1314=DIRECTION('',(0.,1.,0.));
#1315=DIRECTION('',(0.,0.,-1.));
#1316=DIRECTION('',(0.,1.,0.));
#1317=DIRECTION('',(0.,1.,0.));
#1318=DIRECTION('',(0.,0.,1.));
#1319=DIRECTION('',(1.,0.,0.));
#1320=DIRECTION('',(1.,0.,0.));
#1321=DIRECTION('',(0.,0.,1.));
#1322=DIRECTION('',(1.,0.,0.));
#1323=DIRECTION('',(1.,0.,0.));
#1324=DIRECTION('',(0.,-1.,0.));
#1325=DIRECTION('',(1.,0.,0.));
#1326=DIRECTION('',(1.020425574104E-16,-1.,0.));
#1327=DIRECTION('',(0.,0.,1.));
#1328=DIRECTION('',(1.,0.,0.));
#1329=DIRECTION('',(0.,0.,1.));
#1330=DIRECTION('',(1.,0.,0.));
#1331=DIRECTION('',(0.,0.,-1.));
#1332=DIRECTION('',(-1.,0.,0.));
#1333=DIRECTION('',(0.,0.,-1.));
#1334=DIRECTION('',(-1.,0.,0.));
#1335=DIRECTION('',(0.,0.,1.));
#1336=DIRECTION('',(1.,0.,0.));
#1337=DIRECTION('',(0.,0.,1.));
#1338=DIRECTION('',(1.,0.,0.));
#1339=DIRECTION('',(0.,0.,-1.));
#1340=DIRECTION('',(-1.,0.,0.));
#1341=DIRECTION('',(0.,0.,-1.));
#1342=DIRECTION('',(-1.,0.,0.));
#1343=DIRECTION('',(1.,2.20983882290039E-16,0.));
#1344=DIRECTION('',(-2.20983882290039E-16,1.,0.));
#1345=DIRECTION('',(2.20983882290039E-16,-1.,0.));
#1346=DIRECTION('',(0.,0.,-1.));
#1347=DIRECTION('',(2.20983882290039E-16,-1.,0.));
#1348=DIRECTION('',(0.,0.,-1.));
#1349=DIRECTION('',(-5.52459705725097E-16,1.,0.));
#1350=DIRECTION('',(-1.,-5.52459705725097E-16,0.));
#1351=DIRECTION('',(1.,5.52459705725097E-16,0.));
#1352=DIRECTION('',(0.,0.,-1.));
#1353=DIRECTION('',(1.,5.52459705725097E-16,0.));
#1354=DIRECTION('',(1.,0.,0.));
#1355=DIRECTION('',(0.,0.,-1.));
#1356=DIRECTION('',(0.,-1.,0.));
#1357=DIRECTION('',(0.,0.,-1.));
#1358=DIRECTION('',(0.,-1.,0.));
#1359=DIRECTION('',(1.,3.31475823435059E-16,0.));
#1360=DIRECTION('',(-3.31475823435059E-16,1.,0.));
#1361=DIRECTION('',(3.31475823435059E-16,-1.,0.));
#1362=DIRECTION('',(0.,0.,-1.));
#1363=DIRECTION('',(3.31475823435059E-16,-1.,0.));
#1364=DIRECTION('',(0.,0.,-1.));
#1365=DIRECTION('',(-2.20983882290039E-16,1.,0.));
#1366=DIRECTION('',(-1.,-2.20983882290039E-16,0.));
#1367=DIRECTION('',(1.,2.20983882290039E-16,0.));
#1368=DIRECTION('',(0.,0.,-1.));
#1369=DIRECTION('',(1.,2.20983882290039E-16,0.));
#1370=DIRECTION('',(1.,3.31475823435059E-16,0.));
#1371=DIRECTION('',(-3.31475823435059E-16,1.,0.));
#1372=DIRECTION('',(3.31475823435059E-16,-1.,0.));
#1373=DIRECTION('',(0.,0.,-1.));
#1374=DIRECTION('',(3.31475823435059E-16,-1.,0.));
#1375=DIRECTION('',(1.,2.20983882290039E-16,0.));
#1376=DIRECTION('',(-2.20983882290039E-16,1.,0.));
#1377=DIRECTION('',(2.20983882290039E-16,-1.,0.));
#1378=DIRECTION('',(0.,0.,-1.));
#1379=DIRECTION('',(2.20983882290039E-16,-1.,0.));
#1380=DIRECTION('',(0.,0.,-1.));
#1381=DIRECTION('',(-4.41967764580078E-16,1.,0.));
#1382=DIRECTION('',(-1.,-4.41967764580078E-16,0.));
#1383=DIRECTION('',(1.,4.41967764580078E-16,0.));
#1384=DIRECTION('',(0.,0.,-1.));
#1385=DIRECTION('',(1.,4.41967764580078E-16,0.));
#1386=DIRECTION('',(1.,0.,0.));
#1387=DIRECTION('',(0.,0.,-1.));
#1388=DIRECTION('',(0.,-1.,0.));
#1389=DIRECTION('',(0.,0.,-1.));
#1390=DIRECTION('',(0.,-1.,0.));
#1391=DIRECTION('',(1.,3.31475823435059E-16,0.));
#1392=DIRECTION('',(-3.31475823435059E-16,1.,0.));
#1393=DIRECTION('',(3.31475823435059E-16,-1.,0.));
#1394=DIRECTION('',(0.,0.,-1.));
#1395=DIRECTION('',(3.31475823435059E-16,-1.,0.));
#1396=DIRECTION('',(0.,0.,-1.));
#1397=DIRECTION('',(0.,1.,0.));
#1398=DIRECTION('',(0.,0.,1.));
#1399=DIRECTION('',(1.,0.,0.));
#1400=DIRECTION('',(0.,0.,-1.));
#1401=DIRECTION('',(1.,0.,0.));
#1402=DIRECTION('',(1.,3.31475823435059E-16,0.));
#1403=DIRECTION('',(-3.31475823435059E-16,1.,0.));
#1404=DIRECTION('',(3.31475823435059E-16,-1.,0.));
#1405=DIRECTION('',(0.,0.,-1.));
#1406=DIRECTION('',(3.31475823435059E-16,-1.,0.));
#1407=DIRECTION('',(1.,0.,0.));
#1408=DIRECTION('',(0.,0.,-1.));
#1409=DIRECTION('',(0.,-1.,0.));
#1410=DIRECTION('',(0.,0.,-1.));
#1411=DIRECTION('',(0.,-1.,0.));
#1412=DIRECTION('',(0.,0.,-1.));
#1413=DIRECTION('',(-4.41967764580079E-16,1.,0.));
#1414=DIRECTION('',(-1.,-4.41967764580079E-16,0.));
#1415=DIRECTION('',(1.,4.41967764580079E-16,0.));
#1416=DIRECTION('',(0.,0.,-1.));
#1417=DIRECTION('',(1.,4.41967764580079E-16,0.));
#1418=DIRECTION('',(1.,0.,0.));
#1419=DIRECTION('',(0.,0.,-1.));
#1420=DIRECTION('',(0.,-1.,0.));
#1421=DIRECTION('',(0.,0.,-1.));
#1422=DIRECTION('',(0.,-1.,0.));
#1423=DIRECTION('',(1.,3.31475823435059E-16,0.));
#1424=DIRECTION('',(-3.31475823435059E-16,1.,0.));
#1425=DIRECTION('',(3.31475823435059E-16,-1.,0.));
#1426=DIRECTION('',(0.,0.,-1.));
#1427=DIRECTION('',(3.31475823435059E-16,-1.,0.));
#1428=DIRECTION('',(0.,0.,-1.));
#1429=DIRECTION('',(0.,1.,0.));
#1430=DIRECTION('',(0.,0.,1.));
#1431=DIRECTION('',(1.,0.,0.));
#1432=DIRECTION('',(0.,0.,-1.));
#1433=DIRECTION('',(1.,0.,0.));
#1434=DIRECTION('',(1.,3.31475823435059E-16,0.));
#1435=DIRECTION('',(-3.31475823435059E-16,1.,0.));
#1436=DIRECTION('',(3.31475823435059E-16,-1.,0.));
#1437=DIRECTION('',(0.,0.,-1.));
#1438=DIRECTION('',(3.31475823435059E-16,-1.,0.));
#1439=DIRECTION('',(-4.41967764580079E-16,1.,0.));
#1440=DIRECTION('',(-1.,-4.41967764580079E-16,0.));
#1441=DIRECTION('',(1.,4.41967764580079E-16,0.));
#1442=DIRECTION('',(0.,0.,-1.));
#1443=DIRECTION('',(1.,4.41967764580079E-16,0.));
#1444=DIRECTION('',(0.,0.,-1.));
#1445=DIRECTION('',(1.,3.31475823435059E-16,0.));
#1446=DIRECTION('',(-3.31475823435059E-16,1.,0.));
#1447=DIRECTION('',(3.31475823435059E-16,-1.,0.));
#1448=DIRECTION('',(0.,0.,-1.));
#1449=DIRECTION('',(3.31475823435059E-16,-1.,0.));
#1450=DIRECTION('',(-4.41967764580079E-16,1.,0.));
#1451=DIRECTION('',(-1.,-4.41967764580079E-16,0.));
#1452=DIRECTION('',(1.,4.41967764580079E-16,0.));
#1453=DIRECTION('',(0.,0.,-1.));
#1454=DIRECTION('',(1.,4.41967764580079E-16,0.));
#1455=DIRECTION('',(-4.41967764580079E-16,1.,0.));
#1456=DIRECTION('',(-1.,-4.41967764580079E-16,0.));
#1457=DIRECTION('',(1.,4.41967764580079E-16,0.));
#1458=DIRECTION('',(0.,0.,-1.));
#1459=DIRECTION('',(1.,4.41967764580079E-16,0.));
#1460=DIRECTION('',(0.,0.,-1.));
#1461=DIRECTION('',(1.,3.31475823435059E-16,0.));
#1462=DIRECTION('',(-3.31475823435059E-16,1.,0.));
#1463=DIRECTION('',(3.31475823435059E-16,-1.,0.));
#1464=DIRECTION('',(0.,0.,-1.));
#1465=DIRECTION('',(3.31475823435059E-16,-1.,0.));
#1466=DIRECTION('',(-4.41967764580079E-16,1.,0.));
#1467=DIRECTION('',(-1.,-4.41967764580079E-16,0.));
#1468=DIRECTION('',(1.,4.41967764580079E-16,0.));
#1469=DIRECTION('',(0.,0.,-1.));
#1470=DIRECTION('',(1.,4.41967764580079E-16,0.));
#1471=DIRECTION('',(-4.90307988831024E-16,1.,0.));
#1472=DIRECTION('',(-1.,-4.90307988831024E-16,0.));
#1473=DIRECTION('',(1.,4.90307988831024E-16,0.));
#1474=DIRECTION('',(0.,0.,-1.));
#1475=DIRECTION('',(1.,4.90307988831024E-16,0.));
#1476=DIRECTION('',(0.,0.,-1.));
#1477=DIRECTION('',(1.,3.31475823435059E-16,0.));
#1478=DIRECTION('',(-3.31475823435059E-16,1.,0.));
#1479=DIRECTION('',(3.31475823435059E-16,-1.,0.));
#1480=DIRECTION('',(0.,0.,-1.));
#1481=DIRECTION('',(3.31475823435059E-16,-1.,0.));
#1482=DIRECTION('',(-5.52459705725098E-16,1.,0.));
#1483=DIRECTION('',(-1.,-5.52459705725098E-16,0.));
#1484=DIRECTION('',(1.,5.52459705725098E-16,0.));
#1485=DIRECTION('',(0.,0.,-1.));
#1486=DIRECTION('',(1.,5.52459705725098E-16,0.));
#1487=DIRECTION('',(-4.8340224250946E-16,1.,0.));
#1488=DIRECTION('',(-1.,-4.8340224250946E-16,0.));
#1489=DIRECTION('',(1.,4.8340224250946E-16,0.));
#1490=DIRECTION('',(1.,4.8340224250946E-16,0.));
#1491=DIRECTION('',(-2.41701121254731E-16,1.,0.));
#1492=DIRECTION('',(-1.,-2.41701121254731E-16,0.));
#1493=DIRECTION('',(1.,2.41701121254731E-16,0.));
#1494=DIRECTION('',(1.,2.41701121254731E-16,0.));
#1495=DIRECTION('',(-4.41967764580078E-16,1.,0.));
#1496=DIRECTION('',(-1.,-4.41967764580078E-16,0.));
#1497=DIRECTION('',(1.,4.41967764580078E-16,0.));
#1498=DIRECTION('',(1.,4.41967764580078E-16,0.));
#1499=DIRECTION('',(-2.20983882290039E-16,1.,0.));
#1500=DIRECTION('',(-1.,-2.20983882290039E-16,0.));
#1501=DIRECTION('',(1.,2.20983882290039E-16,0.));
#1502=DIRECTION('',(1.,2.20983882290039E-16,0.));
#1503=DIRECTION('',(-4.41967764580079E-16,1.,0.));
#1504=DIRECTION('',(-1.,-4.41967764580079E-16,0.));
#1505=DIRECTION('',(1.,4.41967764580079E-16,0.));
#1506=DIRECTION('',(1.,4.41967764580079E-16,0.));
#1507=DIRECTION('',(0.,1.,0.));
#1508=DIRECTION('',(0.,0.,1.));
#1509=DIRECTION('',(1.,0.,0.));
#1510=DIRECTION('',(1.,0.,0.));
#1511=DIRECTION('',(1.,4.41967764580079E-16,0.));
#1512=DIRECTION('',(-4.41967764580079E-16,1.,0.));
#1513=DIRECTION('',(4.41967764580079E-16,-1.,0.));
#1514=DIRECTION('',(4.41967764580079E-16,-1.,0.));
#1515=DIRECTION('',(1.,4.41967764580079E-16,0.));
#1516=DIRECTION('',(-4.41967764580079E-16,1.,0.));
#1517=DIRECTION('',(4.41967764580079E-16,-1.,0.));
#1518=DIRECTION('',(4.41967764580079E-16,-1.,0.));
#1519=DIRECTION('',(1.,4.41967764580079E-16,0.));
#1520=DIRECTION('',(-4.41967764580079E-16,1.,0.));
#1521=DIRECTION('',(4.41967764580079E-16,-1.,0.));
#1522=DIRECTION('',(4.41967764580079E-16,-1.,0.));
#1523=DIRECTION('',(0.,0.,1.));
#1524=DIRECTION('',(1.,0.,0.));
#1525=DIRECTION('',(0.,0.,1.));
#1526=DIRECTION('',(1.,0.,0.));
#1527=DIRECTION('',(0.,0.,1.));
#1528=DIRECTION('',(1.,0.,0.));
#1529=DIRECTION('',(0.,0.,1.));
#1530=DIRECTION('',(1.,0.,0.));
#1531=DIRECTION('',(0.,0.,1.));
#1532=DIRECTION('',(1.,0.,0.));
#1533=DIRECTION('',(0.,0.,1.));
#1534=DIRECTION('',(1.,0.,0.));
#1535=DIRECTION('',(0.,0.,1.));
#1536=DIRECTION('',(1.,0.,0.));
#1537=DIRECTION('',(0.,0.,1.));
#1538=DIRECTION('',(1.,0.,0.));
#1539=DIRECTION('',(0.,0.,1.));
#1540=DIRECTION('',(1.,0.,0.));
#1541=DIRECTION('',(0.,0.,1.));
#1542=DIRECTION('',(1.,0.,0.));
#1543=DIRECTION('',(0.,0.,1.));
#1544=DIRECTION('',(1.,0.,0.));
#1545=DIRECTION('',(0.,-1.,0.));
#1546=DIRECTION('',(0.,0.,-1.));
#1547=DIRECTION('',(-1.,0.,0.));
#1548=DIRECTION('',(0.,0.,1.));
#1549=DIRECTION('',(1.,0.,0.));
#1550=DIRECTION('',(0.,0.,-1.));
#1551=DIRECTION('',(-1.,0.,0.));
#1552=DIRECTION('',(0.,0.,1.));
#1553=DIRECTION('',(1.020425574104E-16,-1.,0.));
#1554=DIRECTION('',(1.,1.020425574104E-16,0.));
#1555=DIRECTION('',(0.,-1.,0.));
#1556=DIRECTION('',(0.,0.,-1.));
#1557=DIRECTION('',(0.,0.,1.));
#1558=DIRECTION('',(1.,0.,0.));
#1559=DIRECTION('',(0.,-1.,0.));
#1560=DIRECTION('',(0.,0.,-1.));
#1561=DIRECTION('',(0.,0.,1.));
#1562=DIRECTION('',(1.,0.,0.));
#1563=DIRECTION('',(-1.,0.,0.));
#1564=DIRECTION('',(0.,0.,1.));
#1565=DIRECTION('',(0.,1.,0.));
#1566=DIRECTION('',(0.,0.,1.));
#1567=DIRECTION('',(-2.27653999472022E-16,-1.,0.));
#1568=DIRECTION('',(1.,-2.27653999472022E-16,0.));
#1569=DIRECTION('',(-1.,0.,0.));
#1570=DIRECTION('',(0.,0.,1.));
#1571=DIRECTION('',(-1.,0.,0.));
#1572=DIRECTION('',(0.,0.,1.));
#1573=DIRECTION('',(0.,0.,1.));
#1574=DIRECTION('',(1.,0.,0.));
#1575=CARTESIAN_POINT('',(0.,0.,0.));
#1576=CARTESIAN_POINT('',(0.0152293994575739,0.0597592172734983,0.003));
#1577=CARTESIAN_POINT('',(-0.0149606005424261,0.0597592172734983,0.023));
#1578=CARTESIAN_POINT('',(-0.0149606005424261,0.0597592172734983,0.));
#1579=CARTESIAN_POINT('',(-0.0149606005424261,0.0597592172734983,0.01919));
#1580=CARTESIAN_POINT('',(0.0152293994575739,0.0597592172734983,0.01919));
#1581=CARTESIAN_POINT('',(0.0454193994575739,0.0597592172734983,0.01919));
#1582=CARTESIAN_POINT('',(0.0454193994575739,0.0597592172734983,0.003));
#1583=CARTESIAN_POINT('',(0.0454193994575739,0.0597592172734983,0.));
#1584=CARTESIAN_POINT('',(0.0152293994575739,0.0597592172734983,0.));
#1585=CARTESIAN_POINT('',(-0.0187706005424261,0.0257592172734983,0.003));
#1586=CARTESIAN_POINT('',(-0.0187706005424261,-0.00443078272650173,0.003));
#1587=CARTESIAN_POINT('',(-0.0187706005424261,-0.00443078272650173,0.));
#1588=CARTESIAN_POINT('',(-0.0187706005424261,-0.00443078272650173,0.01919));
#1589=CARTESIAN_POINT('',(-0.0187706005424261,0.0559492172734983,0.01919));
#1590=CARTESIAN_POINT('',(-0.0187706005424261,0.0559492172734983,0.01919));
#1591=CARTESIAN_POINT('',(-0.0187706005424261,0.0559492172734983,0.));
#1592=CARTESIAN_POINT('',(-0.0187706005424261,0.0559492172734983,0.));
#1593=CARTESIAN_POINT('',(-0.0187706005424261,0.0257592172734983,0.));
#1594=CARTESIAN_POINT('',(0.0152293994575739,-0.00824078272650173,0.003));
#1595=CARTESIAN_POINT('',(0.0454193994575739,-0.00824078272650173,0.023));
#1596=CARTESIAN_POINT('',(0.0454193994575739,-0.00824078272650173,0.));
#1597=CARTESIAN_POINT('',(0.0454193994575739,-0.00824078272650173,0.01919));
#1598=CARTESIAN_POINT('',(-0.0149606005424261,-0.00824078272650173,0.01919));
#1599=CARTESIAN_POINT('',(-0.0149606005424261,-0.00824078272650173,0.01919));
#1600=CARTESIAN_POINT('',(-0.0149606005424261,-0.00824078272650173,0.003));
#1601=CARTESIAN_POINT('',(-0.0149606005424261,-0.00824078272650173,0.));
#1602=CARTESIAN_POINT('',(0.0152293994575739,-0.00824078272650173,0.));
#1603=CARTESIAN_POINT('',(0.0492293994575739,0.0257592172734983,0.003));
#1604=CARTESIAN_POINT('',(0.0492293994575739,0.0559492172734983,0.003));
#1605=CARTESIAN_POINT('',(0.0492293994575739,0.0559492172734983,0.));
#1606=CARTESIAN_POINT('',(0.0492293994575739,0.0559492172734983,0.01919));
#1607=CARTESIAN_POINT('',(0.0492293994575739,0.0257592172734983,0.01919));
#1608=CARTESIAN_POINT('',(0.0492293994575739,-0.00443078272650173,0.01919));
#1609=CARTESIAN_POINT('',(0.0492293994575739,-0.00443078272650173,0.));
#1610=CARTESIAN_POINT('',(0.0492293994575739,-0.00443078272650173,0.));
#1611=CARTESIAN_POINT('',(0.0492293994575739,0.0257592172734983,0.));
#1612=CARTESIAN_POINT('',(0.0152293994575739,0.0257592172734983,0.));
#1613=CARTESIAN_POINT('',(-0.0149606005424261,0.0559492172734983,0.));
#1614=CARTESIAN_POINT('',(0.0454193994575739,0.0559492172734983,0.));
#1615=CARTESIAN_POINT('',(0.0454193994575739,-0.00443078272650173,0.));
#1616=CARTESIAN_POINT('',(-0.0149606005424261,-0.00443078272650173,0.));
#1617=CARTESIAN_POINT('',(-0.0137706005424261,0.0257592172734983,0.023));
#1618=CARTESIAN_POINT('',(-0.0137706005424261,0.0257592172734983,0.017));
#1619=CARTESIAN_POINT('',(-0.0137706005424261,0.0547592172734983,0.017));
#1620=CARTESIAN_POINT('',(-0.0137706005424261,-0.00324078272650172,0.017));
#1621=CARTESIAN_POINT('',(-0.0137706005424261,0.0547592172734983,0.023));
#1622=CARTESIAN_POINT('',(-0.0137706005424261,0.0547592172734983,0.023));
#1623=CARTESIAN_POINT('',(-0.0137706005424261,0.0257592172734983,0.023));
#1624=CARTESIAN_POINT('',(-0.0137706005424261,-0.00324078272650172,0.023));
#1625=CARTESIAN_POINT('',(-0.0137706005424261,-0.00324078272650172,0.023));
#1626=CARTESIAN_POINT('',(0.0152293994575739,0.0547592172734983,0.023));
#1627=CARTESIAN_POINT('',(0.0152293994575739,0.0547592172734983,0.017));
#1628=CARTESIAN_POINT('',(0.0442293994575739,0.0547592172734983,0.017));
#1629=CARTESIAN_POINT('',(0.0442293994575739,0.0547592172734983,0.023));
#1630=CARTESIAN_POINT('',(0.0442293994575739,0.0547592172734983,0.023));
#1631=CARTESIAN_POINT('',(0.0152293994575739,0.0547592172734983,0.023));
#1632=CARTESIAN_POINT('',(0.0442293994575739,0.0257592172734983,0.023));
#1633=CARTESIAN_POINT('',(0.0442293994575739,0.0257592172734983,0.017));
#1634=CARTESIAN_POINT('',(0.0442293994575739,-0.00324078272650172,0.017));
#1635=CARTESIAN_POINT('',(0.0442293994575739,-0.00324078272650172,0.023));
#1636=CARTESIAN_POINT('',(0.0442293994575739,-0.00324078272650172,0.023));
#1637=CARTESIAN_POINT('',(0.0442293994575739,0.0257592172734983,0.023));
#1638=CARTESIAN_POINT('',(0.0152293994575739,-0.00324078272650172,0.023));
#1639=CARTESIAN_POINT('',(0.0152293994575739,-0.00324078272650172,0.017));
#1640=CARTESIAN_POINT('',(0.0152293994575739,-0.00324078272650172,0.023));
#1641=CARTESIAN_POINT('',(0.0152293994575739,0.0257592172734983,0.023));
#1642=CARTESIAN_POINT('',(0.0152293994575739,0.0559492172734983,0.023));
#1643=CARTESIAN_POINT('',(0.0454193994575739,0.0559492172734983,0.023));
#1644=CARTESIAN_POINT('',(-0.0149606005424261,0.0559492172734983,0.023));
#1645=CARTESIAN_POINT('',(-0.0149606005424261,-0.00443078272650173,0.023));
#1646=CARTESIAN_POINT('',(-0.0149606005424261,-0.00443078272650173,0.023));
#1647=CARTESIAN_POINT('',(0.0454193994575739,-0.00443078272650173,0.023));
#1648=CARTESIAN_POINT('',(0.0454193994575739,-0.00443078272650173,0.023));
#1649=CARTESIAN_POINT('',(0.0454193994575739,0.0257592172734983,0.023));
#1650=CARTESIAN_POINT('',(-0.0149606005424261,0.0559492172734983,0.003));
#1651=CARTESIAN_POINT('',(-0.0149606005424261,0.0559492172734983,0.01919));
#1652=CARTESIAN_POINT('',(0.0454193994575739,0.0559492172734983,0.003));
#1653=CARTESIAN_POINT('',(0.0454193994575739,0.0559492172734983,0.01919));
#1654=CARTESIAN_POINT('',(0.0454193994575739,-0.00443078272650173,0.003));
#1655=CARTESIAN_POINT('',(0.0454193994575739,-0.00443078272650173,0.01919));
#1656=CARTESIAN_POINT('',(-0.0149606005424261,-0.00443078272650173,0.003));
#1657=CARTESIAN_POINT('',(-0.0149606005424261,-0.00443078272650173,0.01919));
#1658=CARTESIAN_POINT('',(0.0258043994575739,0.00733421727349828,0.017));
#1659=CARTESIAN_POINT('',(0.0258043994575739,0.00733421727349828,0.003));
#1660=CARTESIAN_POINT('',(0.0258043994575739,0.0151842172734983,0.003));
#1661=CARTESIAN_POINT('',(0.0258043994575739,-0.000515782726501717,0.003));
#1662=CARTESIAN_POINT('',(0.0258043994575739,0.0151842172734983,0.017));
#1663=CARTESIAN_POINT('',(0.0258043994575739,0.0151842172734983,0.017));
#1664=CARTESIAN_POINT('',(0.0258043994575739,0.00733421727349828,0.017));
#1665=CARTESIAN_POINT('',(0.0258043994575739,-0.000515782726501717,0.017));
#1666=CARTESIAN_POINT('',(0.0258043994575739,-0.000515782726501717,0.017));
#1667=CARTESIAN_POINT('',(0.0336543994575739,0.0151842172734983,0.017));
#1668=CARTESIAN_POINT('',(0.0336543994575739,0.0151842172734983,0.003));
#1669=CARTESIAN_POINT('',(0.0415043994575739,0.0151842172734983,0.003));
#1670=CARTESIAN_POINT('',(0.0415043994575739,0.0151842172734983,0.017));
#1671=CARTESIAN_POINT('',(0.0415043994575739,0.0151842172734983,0.017));
#1672=CARTESIAN_POINT('',(0.0336543994575739,0.0151842172734983,0.017));
#1673=CARTESIAN_POINT('',(0.0415043994575739,0.00733421727349829,0.017));
#1674=CARTESIAN_POINT('',(0.0415043994575739,0.00733421727349829,0.003));
#1675=CARTESIAN_POINT('',(0.0415043994575739,-0.00051578272650171,0.003));
#1676=CARTESIAN_POINT('',(0.0415043994575739,-0.000515782726501709,0.017));
#1677=CARTESIAN_POINT('',(0.0415043994575739,-0.000515782726501709,0.017));
#1678=CARTESIAN_POINT('',(0.0415043994575739,0.00733421727349829,0.017));
#1679=CARTESIAN_POINT('',(-0.0110456005424261,0.00733421727349827,0.017));
#1680=CARTESIAN_POINT('',(-0.0110456005424261,0.00733421727349827,0.003));
#1681=CARTESIAN_POINT('',(-0.0110456005424261,0.0151842172734982,0.003));
#1682=CARTESIAN_POINT('',(-0.0110456005424261,-0.00051578272650173,0.003));
#1683=CARTESIAN_POINT('',(-0.0110456005424261,0.0151842172734982,0.017));
#1684=CARTESIAN_POINT('',(-0.0110456005424261,0.0151842172734982,0.017));
#1685=CARTESIAN_POINT('',(-0.0110456005424261,0.00733421727349827,0.017));
#1686=CARTESIAN_POINT('',(-0.0110456005424261,-0.00051578272650173,0.017));
#1687=CARTESIAN_POINT('',(-0.0110456005424261,-0.00051578272650173,0.017));
#1688=CARTESIAN_POINT('',(-0.00319560054242612,0.0151842172734983,0.017));
#1689=CARTESIAN_POINT('',(-0.00319560054242612,0.0151842172734983,0.003));
#1690=CARTESIAN_POINT('',(0.00465439945757388,0.0151842172734983,0.003));
#1691=CARTESIAN_POINT('',(0.00465439945757388,0.0151842172734983,0.017));
#1692=CARTESIAN_POINT('',(0.00465439945757388,0.0151842172734983,0.017));
#1693=CARTESIAN_POINT('',(-0.00319560054242612,0.0151842172734983,0.017));
#1694=CARTESIAN_POINT('',(0.00465439945757388,0.00733421727349828,0.017));
#1695=CARTESIAN_POINT('',(0.00465439945757388,0.00733421727349828,0.003));
#1696=CARTESIAN_POINT('',(0.00465439945757389,-0.000515782726501725,0.003));
#1697=CARTESIAN_POINT('',(0.00465439945757389,-0.000515782726501723,0.017));
#1698=CARTESIAN_POINT('',(0.00465439945757389,-0.000515782726501723,0.017));
#1699=CARTESIAN_POINT('',(0.00465439945757388,0.00733421727349828,0.017));
#1700=CARTESIAN_POINT('',(0.0258043994575739,0.0257592172734983,0.017));
#1701=CARTESIAN_POINT('',(0.0258043994575739,0.0257592172734983,0.003));
#1702=CARTESIAN_POINT('',(0.0258043994575739,0.0336092172734983,0.003));
#1703=CARTESIAN_POINT('',(0.0258043994575739,0.0179092172734983,0.003));
#1704=CARTESIAN_POINT('',(0.0258043994575739,0.0336092172734983,0.017));
#1705=CARTESIAN_POINT('',(0.0258043994575739,0.0336092172734983,0.017));
#1706=CARTESIAN_POINT('',(0.0258043994575739,0.0257592172734983,0.017));
#1707=CARTESIAN_POINT('',(0.0258043994575739,0.0179092172734983,0.017));
#1708=CARTESIAN_POINT('',(0.0258043994575739,0.0179092172734983,0.017));
#1709=CARTESIAN_POINT('',(0.0336543994575739,0.0336092172734983,0.017));
#1710=CARTESIAN_POINT('',(0.0336543994575739,0.0336092172734983,0.003));
#1711=CARTESIAN_POINT('',(0.0415043994575739,0.0336092172734983,0.003));
#1712=CARTESIAN_POINT('',(0.0415043994575739,0.0336092172734983,0.017));
#1713=CARTESIAN_POINT('',(0.0415043994575739,0.0336092172734983,0.017));
#1714=CARTESIAN_POINT('',(0.0336543994575739,0.0336092172734983,0.017));
#1715=CARTESIAN_POINT('',(0.0415043994575739,0.0257592172734983,0.017));
#1716=CARTESIAN_POINT('',(0.0415043994575739,0.0257592172734983,0.003));
#1717=CARTESIAN_POINT('',(0.0415043994575739,0.0179092172734983,0.003));
#1718=CARTESIAN_POINT('',(0.0415043994575739,0.0179092172734983,0.017));
#1719=CARTESIAN_POINT('',(0.0415043994575739,0.0179092172734983,0.017));
#1720=CARTESIAN_POINT('',(0.0415043994575739,0.0257592172734983,0.017));
#1721=CARTESIAN_POINT('',(-0.0110456005424261,0.0257592172734983,0.017));
#1722=CARTESIAN_POINT('',(-0.0110456005424261,0.0257592172734983,0.003));
#1723=CARTESIAN_POINT('',(-0.0110456005424261,0.0336092172734983,0.003));
#1724=CARTESIAN_POINT('',(-0.0110456005424261,0.0179092172734983,0.003));
#1725=CARTESIAN_POINT('',(-0.0110456005424261,0.0336092172734983,0.017));
#1726=CARTESIAN_POINT('',(-0.0110456005424261,0.0336092172734983,0.017));
#1727=CARTESIAN_POINT('',(-0.0110456005424261,0.0257592172734983,0.017));
#1728=CARTESIAN_POINT('',(-0.0110456005424261,0.0179092172734983,0.017));
#1729=CARTESIAN_POINT('',(-0.0110456005424261,0.0179092172734983,0.017));
#1730=CARTESIAN_POINT('',(-0.00319560054242611,0.0336092172734983,0.017));
#1731=CARTESIAN_POINT('',(-0.00319560054242611,0.0336092172734983,0.003));
#1732=CARTESIAN_POINT('',(0.00465439945757388,0.0336092172734983,0.003));
#1733=CARTESIAN_POINT('',(0.00465439945757388,0.0336092172734983,0.017));
#1734=CARTESIAN_POINT('',(0.00465439945757388,0.0336092172734983,0.017));
#1735=CARTESIAN_POINT('',(-0.00319560054242611,0.0336092172734983,0.017));
#1736=CARTESIAN_POINT('',(0.00465439945757389,0.0257592172734983,0.017));
#1737=CARTESIAN_POINT('',(0.00465439945757389,0.0257592172734983,0.003));
#1738=CARTESIAN_POINT('',(0.00465439945757389,0.0179092172734983,0.003));
#1739=CARTESIAN_POINT('',(0.00465439945757389,0.0179092172734983,0.017));
#1740=CARTESIAN_POINT('',(0.00465439945757389,0.0179092172734983,0.017));
#1741=CARTESIAN_POINT('',(0.00465439945757389,0.0257592172734983,0.017));
#1742=CARTESIAN_POINT('',(0.0258043994575739,0.0441842172734983,0.017));
#1743=CARTESIAN_POINT('',(0.0258043994575739,0.0441842172734983,0.003));
#1744=CARTESIAN_POINT('',(0.0258043994575739,0.0520342172734983,0.003));
#1745=CARTESIAN_POINT('',(0.0258043994575739,0.0363342172734983,0.003));
#1746=CARTESIAN_POINT('',(0.0258043994575739,0.0520342172734983,0.017));
#1747=CARTESIAN_POINT('',(0.0258043994575739,0.0520342172734983,0.017));
#1748=CARTESIAN_POINT('',(0.0258043994575739,0.0441842172734983,0.017));
#1749=CARTESIAN_POINT('',(0.0258043994575739,0.0363342172734983,0.017));
#1750=CARTESIAN_POINT('',(0.0258043994575739,0.0363342172734983,0.017));
#1751=CARTESIAN_POINT('',(0.0336543994575739,0.0520342172734983,0.017));
#1752=CARTESIAN_POINT('',(0.0336543994575739,0.0520342172734983,0.003));
#1753=CARTESIAN_POINT('',(0.0415043994575739,0.0520342172734983,0.003));
#1754=CARTESIAN_POINT('',(0.0415043994575739,0.0520342172734983,0.017));
#1755=CARTESIAN_POINT('',(0.0415043994575739,0.0520342172734983,0.017));
#1756=CARTESIAN_POINT('',(0.0336543994575739,0.0520342172734983,0.017));
#1757=CARTESIAN_POINT('',(0.0415043994575739,0.0441842172734983,0.017));
#1758=CARTESIAN_POINT('',(0.0415043994575739,0.0441842172734983,0.003));
#1759=CARTESIAN_POINT('',(0.0415043994575739,0.0363342172734983,0.003));
#1760=CARTESIAN_POINT('',(0.0415043994575739,0.0363342172734983,0.017));
#1761=CARTESIAN_POINT('',(0.0415043994575739,0.0363342172734983,0.017));
#1762=CARTESIAN_POINT('',(0.0415043994575739,0.0441842172734983,0.017));
#1763=CARTESIAN_POINT('',(-0.0110456005424261,0.0441842172734983,0.017));
#1764=CARTESIAN_POINT('',(-0.0110456005424261,0.0441842172734983,0.003));
#1765=CARTESIAN_POINT('',(-0.0110456005424261,0.0520342172734983,0.003));
#1766=CARTESIAN_POINT('',(-0.0110456005424261,0.0363342172734983,0.003));
#1767=CARTESIAN_POINT('',(-0.0110456005424261,0.0520342172734983,0.017));
#1768=CARTESIAN_POINT('',(-0.0110456005424261,0.0520342172734983,0.017));
#1769=CARTESIAN_POINT('',(-0.0110456005424261,0.0441842172734983,0.017));
#1770=CARTESIAN_POINT('',(-0.0110456005424261,0.0363342172734983,0.017));
#1771=CARTESIAN_POINT('',(-0.0110456005424261,0.0363342172734983,0.017));
#1772=CARTESIAN_POINT('',(-0.00319560054242611,0.0520342172734983,0.017));
#1773=CARTESIAN_POINT('',(-0.00319560054242611,0.0520342172734983,0.003));
#1774=CARTESIAN_POINT('',(0.00465439945757389,0.0520342172734983,0.003));
#1775=CARTESIAN_POINT('',(0.00465439945757389,0.0520342172734983,0.017));
#1776=CARTESIAN_POINT('',(0.00465439945757389,0.0520342172734983,0.017));
#1777=CARTESIAN_POINT('',(-0.00319560054242611,0.0520342172734983,0.017));
#1778=CARTESIAN_POINT('',(0.00465439945757389,0.0441842172734983,0.017));
#1779=CARTESIAN_POINT('',(0.00465439945757389,0.0441842172734983,0.003));
#1780=CARTESIAN_POINT('',(0.00465439945757389,0.0363342172734983,0.003));
#1781=CARTESIAN_POINT('',(0.00465439945757389,0.0363342172734983,0.017));
#1782=CARTESIAN_POINT('',(0.00465439945757389,0.0363342172734983,0.017));
#1783=CARTESIAN_POINT('',(0.00465439945757389,0.0441842172734983,0.017));
#1784=CARTESIAN_POINT('',(0.0152293994575739,0.0363342172734983,0.017));
#1785=CARTESIAN_POINT('',(0.0152293994575739,0.0363342172734983,0.003));
#1786=CARTESIAN_POINT('',(0.00737939945757389,0.0363342172734983,0.003));
#1787=CARTESIAN_POINT('',(0.0230793994575739,0.0363342172734983,0.003));
#1788=CARTESIAN_POINT('',(0.00737939945757389,0.0363342172734983,0.017));
#1789=CARTESIAN_POINT('',(0.00737939945757389,0.0363342172734983,0.017));
#1790=CARTESIAN_POINT('',(0.0152293994575739,0.0363342172734983,0.017));
#1791=CARTESIAN_POINT('',(0.0230793994575739,0.0363342172734983,0.017));
#1792=CARTESIAN_POINT('',(0.0230793994575739,0.0363342172734983,0.017));
#1793=CARTESIAN_POINT('',(0.00737939945757389,0.0441842172734983,0.017));
#1794=CARTESIAN_POINT('',(0.00737939945757389,0.0441842172734983,0.003));
#1795=CARTESIAN_POINT('',(0.00737939945757389,0.0520342172734983,0.003));
#1796=CARTESIAN_POINT('',(0.00737939945757389,0.0520342172734983,0.017));
#1797=CARTESIAN_POINT('',(0.00737939945757389,0.0520342172734983,0.017));
#1798=CARTESIAN_POINT('',(0.00737939945757389,0.0441842172734983,0.017));
#1799=CARTESIAN_POINT('',(0.0152293994575739,0.0520342172734983,0.017));
#1800=CARTESIAN_POINT('',(0.0152293994575739,0.0520342172734983,0.003));
#1801=CARTESIAN_POINT('',(0.0230793994575739,0.0520342172734983,0.003));
#1802=CARTESIAN_POINT('',(0.0230793994575739,0.0520342172734983,0.017));
#1803=CARTESIAN_POINT('',(0.0230793994575739,0.0520342172734983,0.017));
#1804=CARTESIAN_POINT('',(0.0152293994575739,0.0520342172734983,0.017));
#1805=CARTESIAN_POINT('',(0.0152293994575739,0.0179092172734983,0.017));
#1806=CARTESIAN_POINT('',(0.0152293994575739,0.0179092172734983,0.003));
#1807=CARTESIAN_POINT('',(0.00737939945757389,0.0179092172734983,0.003));
#1808=CARTESIAN_POINT('',(0.0230793994575739,0.0179092172734983,0.003));
#1809=CARTESIAN_POINT('',(0.00737939945757389,0.0179092172734983,0.017));
#1810=CARTESIAN_POINT('',(0.00737939945757389,0.0179092172734983,0.017));
#1811=CARTESIAN_POINT('',(0.0152293994575739,0.0179092172734983,0.017));
#1812=CARTESIAN_POINT('',(0.0230793994575739,0.0179092172734983,0.017));
#1813=CARTESIAN_POINT('',(0.0230793994575739,0.0179092172734983,0.017));
#1814=CARTESIAN_POINT('',(0.00737939945757389,0.0257592172734983,0.017));
#1815=CARTESIAN_POINT('',(0.00737939945757389,0.0257592172734983,0.003));
#1816=CARTESIAN_POINT('',(0.00737939945757388,0.0336092172734983,0.003));
#1817=CARTESIAN_POINT('',(0.00737939945757388,0.0336092172734983,0.017));
#1818=CARTESIAN_POINT('',(0.00737939945757388,0.0336092172734983,0.017));
#1819=CARTESIAN_POINT('',(0.00737939945757389,0.0257592172734983,0.017));
#1820=CARTESIAN_POINT('',(0.0152293994575739,0.0336092172734983,0.017));
#1821=CARTESIAN_POINT('',(0.0152293994575739,0.0336092172734983,0.003));
#1822=CARTESIAN_POINT('',(0.0230793994575739,0.0336092172734983,0.003));
#1823=CARTESIAN_POINT('',(0.0230793994575739,0.0336092172734983,0.017));
#1824=CARTESIAN_POINT('',(0.0230793994575739,0.0336092172734983,0.017));
#1825=CARTESIAN_POINT('',(0.0152293994575739,0.0336092172734983,0.017));
#1826=CARTESIAN_POINT('',(0.0152293994575739,-0.000515782726501719,0.017));
#1827=CARTESIAN_POINT('',(0.0152293994575739,-0.000515782726501719,0.003));
#1828=CARTESIAN_POINT('',(0.00737939945757389,-0.000515782726501723,0.003));
#1829=CARTESIAN_POINT('',(0.0230793994575739,-0.000515782726501716,0.003));
#1830=CARTESIAN_POINT('',(0.00737939945757389,-0.000515782726501723,0.017));
#1831=CARTESIAN_POINT('',(0.00737939945757389,-0.000515782726501723,0.017));
#1832=CARTESIAN_POINT('',(0.0152293994575739,-0.000515782726501719,0.017));
#1833=CARTESIAN_POINT('',(0.0230793994575739,-0.000515782726501716,0.017));
#1834=CARTESIAN_POINT('',(0.0230793994575739,-0.000515782726501716,0.017));
#1835=CARTESIAN_POINT('',(0.00737939945757388,0.00733421727349828,0.017));
#1836=CARTESIAN_POINT('',(0.00737939945757388,0.00733421727349828,0.003));
#1837=CARTESIAN_POINT('',(0.00737939945757388,0.0151842172734982,0.003));
#1838=CARTESIAN_POINT('',(0.00737939945757388,0.0151842172734982,0.017));
#1839=CARTESIAN_POINT('',(0.00737939945757388,0.0151842172734982,0.017));
#1840=CARTESIAN_POINT('',(0.00737939945757388,0.00733421727349828,0.017));
#1841=CARTESIAN_POINT('',(0.0152293994575739,0.0151842172734983,0.017));
#1842=CARTESIAN_POINT('',(0.0152293994575739,0.0151842172734983,0.003));
#1843=CARTESIAN_POINT('',(0.0230793994575739,0.0151842172734983,0.003));
#1844=CARTESIAN_POINT('',(0.0230793994575739,0.0151842172734983,0.017));
#1845=CARTESIAN_POINT('',(0.0230793994575739,0.0151842172734983,0.017));
#1846=CARTESIAN_POINT('',(0.0152293994575739,0.0151842172734983,0.017));
#1847=CARTESIAN_POINT('',(0.0336543994575739,-0.000515782726501713,0.017));
#1848=CARTESIAN_POINT('',(0.0336543994575739,-0.000515782726501713,0.003));
#1849=CARTESIAN_POINT('',(0.0336543994575739,-0.000515782726501713,0.017));
#1850=CARTESIAN_POINT('',(-0.00319560054242611,-0.000515782726501728,0.017));
#1851=CARTESIAN_POINT('',(-0.00319560054242611,-0.000515782726501728,0.003));
#1852=CARTESIAN_POINT('',(-0.00319560054242611,-0.000515782726501728,0.017));
#1853=CARTESIAN_POINT('',(0.0336543994575739,0.0179092172734983,0.017));
#1854=CARTESIAN_POINT('',(0.0336543994575739,0.0179092172734983,0.003));
#1855=CARTESIAN_POINT('',(0.0336543994575739,0.0179092172734983,0.017));
#1856=CARTESIAN_POINT('',(-0.00319560054242611,0.0179092172734983,0.017));
#1857=CARTESIAN_POINT('',(-0.00319560054242611,0.0179092172734983,0.003));
#1858=CARTESIAN_POINT('',(-0.00319560054242611,0.0179092172734983,0.017));
#1859=CARTESIAN_POINT('',(0.0336543994575739,0.0363342172734983,0.017));
#1860=CARTESIAN_POINT('',(0.0336543994575739,0.0363342172734983,0.003));
#1861=CARTESIAN_POINT('',(0.0336543994575739,0.0363342172734983,0.017));
#1862=CARTESIAN_POINT('',(-0.0031956005424261,0.0363342172734983,0.017));
#1863=CARTESIAN_POINT('',(-0.0031956005424261,0.0363342172734983,0.003));
#1864=CARTESIAN_POINT('',(-0.0031956005424261,0.0363342172734983,0.017));
#1865=CARTESIAN_POINT('',(0.0230793994575739,0.0441842172734983,0.017));
#1866=CARTESIAN_POINT('',(0.0230793994575739,0.0441842172734983,0.003));
#1867=CARTESIAN_POINT('',(0.0230793994575739,0.0441842172734983,0.017));
#1868=CARTESIAN_POINT('',(0.0230793994575739,0.0257592172734983,0.017));
#1869=CARTESIAN_POINT('',(0.0230793994575739,0.0257592172734983,0.003));
#1870=CARTESIAN_POINT('',(0.0230793994575739,0.0257592172734983,0.017));
#1871=CARTESIAN_POINT('',(0.0230793994575739,0.00733421727349828,0.017));
#1872=CARTESIAN_POINT('',(0.0230793994575739,0.00733421727349828,0.003));
#1873=CARTESIAN_POINT('',(0.0230793994575739,0.00733421727349828,0.017));
#1874=CARTESIAN_POINT('',(0.0152293994575739,0.0257592172734983,0.017));
#1875=CARTESIAN_POINT('',(0.0152293994575739,0.0257592172734983,0.003));
#1876=CARTESIAN_POINT('',(0.0152293994575739,0.0257592172734983,0.003));
#1877=CARTESIAN_POINT('',(0.0152293994575739,0.0257592172734983,0.003));
#1878=CARTESIAN_POINT('',(0.0152293994575739,0.0257592172734983,0.003));
#1879=CARTESIAN_POINT('',(0.0152293994575739,0.0257592172734983,0.003));
#1880=CARTESIAN_POINT('',(0.0152293994575739,0.0257592172734983,0.003));
#1881=CARTESIAN_POINT('',(0.0152293994575739,0.0257592172734983,0.003));
#1882=CARTESIAN_POINT('',(0.0152293994575739,0.0257592172734983,0.003));
#1883=CARTESIAN_POINT('',(0.0152293994575739,0.0257592172734983,0.003));
#1884=CARTESIAN_POINT('',(0.0454193994575739,0.0559492172734983,0.01919));
#1885=CARTESIAN_POINT('',(0.0454193994575739,0.0559492172734983,0.01919));
#1886=CARTESIAN_POINT('',(0.0454193994575739,0.0559492172734983,0.01919));
#1887=CARTESIAN_POINT('',(0.0152293994575739,0.0559492172734983,0.01919));
#1888=CARTESIAN_POINT('',(-0.0149606005424261,0.0559492172734983,0.01919));
#1889=CARTESIAN_POINT('',(0.0454193994575739,0.0257592172734983,0.01919));
#1890=CARTESIAN_POINT('',(0.0454193994575739,-0.00443078272650173,0.01919));
#1891=CARTESIAN_POINT('',(-0.0149606005424261,0.0559492172734983,0.01919));
#1892=CARTESIAN_POINT('',(-0.0149606005424261,0.0559492172734983,0.01919));
#1893=CARTESIAN_POINT('',(0.0454193994575739,-0.00443078272650173,0.01919));
#1894=CARTESIAN_POINT('',(0.0454193994575739,-0.00443078272650173,0.01919));
#1895=CARTESIAN_POINT('',(-0.0149606005424261,0.0257592172734983,0.01919));
#1896=CARTESIAN_POINT('',(-0.0149606005424261,-0.00443078272650173,0.01919));
#1897=CARTESIAN_POINT('',(0.0152293994575739,-0.00443078272650173,0.01919));
#1898=CARTESIAN_POINT('',(-0.0149606005424261,-0.00443078272650173,0.01919));
#1899=CARTESIAN_POINT('',(-0.0149606005424261,-0.00443078272650173,0.01919));
#1900=MECHANICAL_DESIGN_GEOMETRIC_PRESENTATION_REPRESENTATION('',(#1169),
#1901);
#1901=(
GEOMETRIC_REPRESENTATION_CONTEXT(3)
GLOBAL_UNCERTAINTY_ASSIGNED_CONTEXT((#1902))
GLOBAL_UNIT_ASSIGNED_CONTEXT((#1905,#1904,#1903))
REPRESENTATION_CONTEXT('Part 1','TOP_LEVEL_ASSEMBLY_PART')
);
#1902=UNCERTAINTY_MEASURE_WITH_UNIT(LENGTH_MEASURE(1.E-8),#1905,
'DISTANCE_ACCURACY_VALUE','Maximum Tolerance applied to model');
#1903=(
NAMED_UNIT(*)
SI_UNIT($,.STERADIAN.)
SOLID_ANGLE_UNIT()
);
#1904=(
NAMED_UNIT(*)
PLANE_ANGLE_UNIT()
SI_UNIT($,.RADIAN.)
);
#1905=(
LENGTH_UNIT()
NAMED_UNIT(*)
SI_UNIT($,.METRE.)
);
#1906=PRODUCT_DEFINITION_SHAPE('','',#1907);
#1907=PRODUCT_DEFINITION('','',#1909,#1908);
#1908=PRODUCT_DEFINITION_CONTEXT('',#1915,'design');
#1909=PRODUCT_DEFINITION_FORMATION_WITH_SPECIFIED_SOURCE('','',#1911,
 .NOT_KNOWN.);
#1910=PRODUCT_RELATED_PRODUCT_CATEGORY('','',(#1911));
#1911=PRODUCT('Part 1','Part 1','Part 1',(#1913));
#1912=PRODUCT_CATEGORY('','');
#1913=PRODUCT_CONTEXT('',#1915,'mechanical');
#1914=APPLICATION_PROTOCOL_DEFINITION('international standard',
'ap242_managed_model_based_3d_engineering',2020,#1915);
#1915=APPLICATION_CONTEXT('managed model based 3d engineering');
ENDSEC;
END-ISO-10303-21;
