ISO-10303-21;
HEADER;
/* Generated by software containing ST-Developer
 * from STEP Tools, Inc. (www.steptools.com) 
 */
/* OPTION: using custom renumber hook */

FILE_DESCRIPTION(
/* description */ ('STEP AP242 Edition 2',
'CAx-IF Rec.Pracs.---Representation and Presentation of Product Manufa
cturing Information (PMI)---4.0---2014-10-13',
'CAx-IF Rec.Pracs.---3D Tessellated Geometry---0.4---2014-09-14','2;1',
'CAx-IF Rec.Pracs.---User Defined Attributes---1.5---2016-08-15'),
/* implementation_level */ '2;1');

FILE_NAME(
/* name */ 'Part Studio 2',
/* time_stamp */ '2026-09-21T10:34:33Z',
/* author */ (''),
/* organization */ (''),
/* preprocessor_version */ 'ST-DEVELOPER v20',
/* originating_system */ 'ONSHAPE BY PTC INC, 1.221',
/* authorisation */ '  ');

FILE_SCHEMA (('AP242_MANAGED_MODEL_BASED_3D_ENGINEERING_MIM_LF { 1 0 10303 442 3 1 4 }'));
ENDSEC;

DATA;
#10=SHAPE_REPRESENTATION_RELATIONSHIP('','',#485,#11);
#11=ADVANCED_BREP_SHAPE_REPRESENTATION('',(#483),#765);
#12=CYLINDRICAL_SURFACE('',#499,0.0025);
#13=LINE('',#637,#73);
#14=LINE('',#640,#74);
#15=LINE('',#642,#75);
#16=LINE('',#644,#76);
#17=LINE('',#646,#77);
#18=LINE('',#649,#78);
#19=LINE('',#651,#79);
#20=LINE('',#653,#80);
#21=LINE('',#655,#81);
#22=LINE('',#658,#82);
#23=LINE('',#660,#83);
#24=LINE('',#662,#84);
#25=LINE('',#663,#85);
#26=LINE('',#666,#86);
#27=LINE('',#668,#87);
#28=LINE('',#670,#88);
#29=LINE('',#672,#89);
#30=LINE('',#673,#90);
#31=LINE('',#675,#91);
#32=LINE('',#677,#92);
#33=LINE('',#680,#93);
#34=LINE('',#681,#94);
#35=LINE('',#683,#95);
#36=LINE('',#685,#96);
#37=LINE('',#691,#97);
#38=LINE('',#694,#98);
#39=LINE('',#696,#99);
#40=LINE('',#698,#100);
#41=LINE('',#700,#101);
#42=LINE('',#702,#102);
#43=LINE('',#704,#103);
#44=LINE('',#706,#104);
#45=LINE('',#708,#105);
#46=LINE('',#710,#106);
#47=LINE('',#712,#107);
#48=LINE('',#714,#108);
#49=LINE('',#716,#109);
#50=LINE('',#719,#110);
#51=LINE('',#721,#111);
#52=LINE('',#723,#112);
#53=LINE('',#725,#113);
#54=LINE('',#727,#114);
#55=LINE('',#729,#115);
#56=LINE('',#731,#116);
#57=LINE('',#733,#117);
#58=LINE('',#735,#118);
#59=LINE('',#737,#119);
#60=LINE('',#739,#120);
#61=LINE('',#741,#121);
#62=LINE('',#742,#122);
#63=LINE('',#744,#123);
#64=LINE('',#746,#124);
#65=LINE('',#748,#125);
#66=LINE('',#750,#126);
#67=LINE('',#752,#127);
#68=LINE('',#754,#128);
#69=LINE('',#756,#129);
#70=LINE('',#758,#130);
#71=LINE('',#760,#131);
#72=LINE('',#762,#132);
#73=VECTOR('',#521,1.);
#74=VECTOR('',#522,1.);
#75=VECTOR('',#523,1.);
#76=VECTOR('',#524,1.);
#77=VECTOR('',#527,1.);
#78=VECTOR('',#528,1.);
#79=VECTOR('',#529,1.);
#80=VECTOR('',#530,1.);
#81=VECTOR('',#533,1.);
#82=VECTOR('',#534,1.);
#83=VECTOR('',#535,1.);
#84=VECTOR('',#536,1.);
#85=VECTOR('',#537,1.);
#86=VECTOR('',#538,1.);
#87=VECTOR('',#539,1.);
#88=VECTOR('',#540,1.);
#89=VECTOR('',#543,1.);
#90=VECTOR('',#544,1.);
#91=VECTOR('',#547,1.);
#92=VECTOR('',#550,1.);
#93=VECTOR('',#555,1.);
#94=VECTOR('',#556,1.);
#95=VECTOR('',#559,1.);
#96=VECTOR('',#562,1.);
#97=VECTOR('',#571,1.);
#98=VECTOR('',#572,1.);
#99=VECTOR('',#573,1.);
#100=VECTOR('',#574,1.);
#101=VECTOR('',#575,1.);
#102=VECTOR('',#576,1.);
#103=VECTOR('',#577,1.);
#104=VECTOR('',#578,1.);
#105=VECTOR('',#579,1.);
#106=VECTOR('',#580,1.);
#107=VECTOR('',#581,1.);
#108=VECTOR('',#582,1.);
#109=VECTOR('',#585,1.);
#110=VECTOR('',#586,1.);
#111=VECTOR('',#587,1.);
#112=VECTOR('',#588,1.);
#113=VECTOR('',#589,1.);
#114=VECTOR('',#590,1.);
#115=VECTOR('',#591,1.);
#116=VECTOR('',#592,1.);
#117=VECTOR('',#593,1.);
#118=VECTOR('',#594,1.);
#119=VECTOR('',#595,1.);
#120=VECTOR('',#596,1.);
#121=VECTOR('',#599,1.);
#122=VECTOR('',#600,1.);
#123=VECTOR('',#603,1.);
#124=VECTOR('',#606,1.);
#125=VECTOR('',#609,1.);
#126=VECTOR('',#612,1.);
#127=VECTOR('',#615,1.);
#128=VECTOR('',#618,1.);
#129=VECTOR('',#621,1.);
#130=VECTOR('',#624,1.);
#131=VECTOR('',#627,1.);
#132=VECTOR('',#630,1.);
#133=ORIENTED_EDGE('',*,*,#257,.F.);
#134=ORIENTED_EDGE('',*,*,#258,.T.);
#135=ORIENTED_EDGE('',*,*,#259,.T.);
#136=ORIENTED_EDGE('',*,*,#260,.T.);
#137=ORIENTED_EDGE('',*,*,#261,.T.);
#138=ORIENTED_EDGE('',*,*,#262,.T.);
#139=ORIENTED_EDGE('',*,*,#263,.T.);
#140=ORIENTED_EDGE('',*,*,#264,.T.);
#141=ORIENTED_EDGE('',*,*,#265,.T.);
#142=ORIENTED_EDGE('',*,*,#266,.F.);
#143=ORIENTED_EDGE('',*,*,#267,.F.);
#144=ORIENTED_EDGE('',*,*,#268,.F.);
#145=ORIENTED_EDGE('',*,*,#269,.F.);
#146=ORIENTED_EDGE('',*,*,#270,.T.);
#147=ORIENTED_EDGE('',*,*,#271,.T.);
#148=ORIENTED_EDGE('',*,*,#272,.F.);
#149=ORIENTED_EDGE('',*,*,#273,.F.);
#150=ORIENTED_EDGE('',*,*,#274,.F.);
#151=ORIENTED_EDGE('',*,*,#270,.F.);
#152=ORIENTED_EDGE('',*,*,#275,.F.);
#153=ORIENTED_EDGE('',*,*,#265,.F.);
#154=ORIENTED_EDGE('',*,*,#275,.T.);
#155=ORIENTED_EDGE('',*,*,#273,.T.);
#156=ORIENTED_EDGE('',*,*,#276,.F.);
#157=ORIENTED_EDGE('',*,*,#262,.F.);
#158=ORIENTED_EDGE('',*,*,#274,.T.);
#159=ORIENTED_EDGE('',*,*,#264,.F.);
#160=ORIENTED_EDGE('',*,*,#277,.F.);
#161=ORIENTED_EDGE('',*,*,#271,.F.);
#162=ORIENTED_EDGE('',*,*,#276,.T.);
#163=ORIENTED_EDGE('',*,*,#272,.T.);
#164=ORIENTED_EDGE('',*,*,#277,.T.);
#165=ORIENTED_EDGE('',*,*,#263,.F.);
#166=ORIENTED_EDGE('',*,*,#267,.T.);
#167=ORIENTED_EDGE('',*,*,#278,.F.);
#168=ORIENTED_EDGE('',*,*,#258,.F.);
#169=ORIENTED_EDGE('',*,*,#279,.T.);
#170=ORIENTED_EDGE('',*,*,#266,.T.);
#171=ORIENTED_EDGE('',*,*,#280,.F.);
#172=ORIENTED_EDGE('',*,*,#259,.F.);
#173=ORIENTED_EDGE('',*,*,#278,.T.);
#174=ORIENTED_EDGE('',*,*,#269,.T.);
#175=ORIENTED_EDGE('',*,*,#281,.F.);
#176=ORIENTED_EDGE('',*,*,#260,.F.);
#177=ORIENTED_EDGE('',*,*,#280,.T.);
#178=ORIENTED_EDGE('',*,*,#268,.T.);
#179=ORIENTED_EDGE('',*,*,#279,.F.);
#180=ORIENTED_EDGE('',*,*,#261,.F.);
#181=ORIENTED_EDGE('',*,*,#281,.T.);
#182=ORIENTED_EDGE('',*,*,#282,.F.);
#183=ORIENTED_EDGE('',*,*,#257,.T.);
#184=ORIENTED_EDGE('',*,*,#283,.F.);
#185=ORIENTED_EDGE('',*,*,#284,.T.);
#186=ORIENTED_EDGE('',*,*,#285,.T.);
#187=ORIENTED_EDGE('',*,*,#286,.T.);
#188=ORIENTED_EDGE('',*,*,#287,.T.);
#189=ORIENTED_EDGE('',*,*,#288,.F.);
#190=ORIENTED_EDGE('',*,*,#289,.T.);
#191=ORIENTED_EDGE('',*,*,#290,.F.);
#192=ORIENTED_EDGE('',*,*,#291,.F.);
#193=ORIENTED_EDGE('',*,*,#292,.F.);
#194=ORIENTED_EDGE('',*,*,#293,.F.);
#195=ORIENTED_EDGE('',*,*,#294,.T.);
#196=ORIENTED_EDGE('',*,*,#282,.T.);
#197=ORIENTED_EDGE('',*,*,#295,.F.);
#198=ORIENTED_EDGE('',*,*,#296,.T.);
#199=ORIENTED_EDGE('',*,*,#297,.F.);
#200=ORIENTED_EDGE('',*,*,#298,.T.);
#201=ORIENTED_EDGE('',*,*,#299,.T.);
#202=ORIENTED_EDGE('',*,*,#300,.T.);
#203=ORIENTED_EDGE('',*,*,#301,.T.);
#204=ORIENTED_EDGE('',*,*,#302,.F.);
#205=ORIENTED_EDGE('',*,*,#303,.T.);
#206=ORIENTED_EDGE('',*,*,#304,.F.);
#207=ORIENTED_EDGE('',*,*,#305,.F.);
#208=ORIENTED_EDGE('',*,*,#306,.F.);
#209=ORIENTED_EDGE('',*,*,#307,.T.);
#210=ORIENTED_EDGE('',*,*,#294,.F.);
#211=ORIENTED_EDGE('',*,*,#308,.F.);
#212=ORIENTED_EDGE('',*,*,#297,.T.);
#213=ORIENTED_EDGE('',*,*,#308,.T.);
#214=ORIENTED_EDGE('',*,*,#293,.T.);
#215=ORIENTED_EDGE('',*,*,#309,.F.);
#216=ORIENTED_EDGE('',*,*,#298,.F.);
#217=ORIENTED_EDGE('',*,*,#309,.T.);
#218=ORIENTED_EDGE('',*,*,#292,.T.);
#219=ORIENTED_EDGE('',*,*,#310,.F.);
#220=ORIENTED_EDGE('',*,*,#299,.F.);
#221=ORIENTED_EDGE('',*,*,#310,.T.);
#222=ORIENTED_EDGE('',*,*,#291,.T.);
#223=ORIENTED_EDGE('',*,*,#311,.F.);
#224=ORIENTED_EDGE('',*,*,#300,.F.);
#225=ORIENTED_EDGE('',*,*,#311,.T.);
#226=ORIENTED_EDGE('',*,*,#290,.T.);
#227=ORIENTED_EDGE('',*,*,#312,.F.);
#228=ORIENTED_EDGE('',*,*,#301,.F.);
#229=ORIENTED_EDGE('',*,*,#312,.T.);
#230=ORIENTED_EDGE('',*,*,#289,.F.);
#231=ORIENTED_EDGE('',*,*,#313,.F.);
#232=ORIENTED_EDGE('',*,*,#302,.T.);
#233=ORIENTED_EDGE('',*,*,#313,.T.);
#234=ORIENTED_EDGE('',*,*,#288,.T.);
#235=ORIENTED_EDGE('',*,*,#314,.F.);
#236=ORIENTED_EDGE('',*,*,#303,.F.);
#237=ORIENTED_EDGE('',*,*,#314,.T.);
#238=ORIENTED_EDGE('',*,*,#287,.F.);
#239=ORIENTED_EDGE('',*,*,#315,.F.);
#240=ORIENTED_EDGE('',*,*,#304,.T.);
#241=ORIENTED_EDGE('',*,*,#315,.T.);
#242=ORIENTED_EDGE('',*,*,#286,.F.);
#243=ORIENTED_EDGE('',*,*,#316,.F.);
#244=ORIENTED_EDGE('',*,*,#305,.T.);
#245=ORIENTED_EDGE('',*,*,#316,.T.);
#246=ORIENTED_EDGE('',*,*,#285,.F.);
#247=ORIENTED_EDGE('',*,*,#317,.F.);
#248=ORIENTED_EDGE('',*,*,#306,.T.);
#249=ORIENTED_EDGE('',*,*,#317,.T.);
#250=ORIENTED_EDGE('',*,*,#284,.F.);
#251=ORIENTED_EDGE('',*,*,#318,.F.);
#252=ORIENTED_EDGE('',*,*,#295,.T.);
#253=ORIENTED_EDGE('',*,*,#318,.T.);
#254=ORIENTED_EDGE('',*,*,#283,.T.);
#255=ORIENTED_EDGE('',*,*,#307,.F.);
#256=ORIENTED_EDGE('',*,*,#296,.F.);
#257=EDGE_CURVE('',#319,#319,#361,.T.);
#258=EDGE_CURVE('',#320,#321,#13,.T.);
#259=EDGE_CURVE('',#321,#322,#14,.T.);
#260=EDGE_CURVE('',#322,#323,#15,.T.);
#261=EDGE_CURVE('',#323,#320,#16,.T.);
#262=EDGE_CURVE('',#324,#325,#17,.T.);
#263=EDGE_CURVE('',#325,#326,#18,.T.);
#264=EDGE_CURVE('',#326,#327,#19,.T.);
#265=EDGE_CURVE('',#327,#324,#20,.T.);
#266=EDGE_CURVE('',#328,#329,#21,.T.);
#267=EDGE_CURVE('',#330,#328,#22,.T.);
#268=EDGE_CURVE('',#331,#330,#23,.T.);
#269=EDGE_CURVE('',#329,#331,#24,.T.);
#270=EDGE_CURVE('',#332,#333,#25,.T.);
#271=EDGE_CURVE('',#333,#334,#26,.T.);
#272=EDGE_CURVE('',#335,#334,#27,.T.);
#273=EDGE_CURVE('',#332,#335,#28,.T.);
#274=EDGE_CURVE('',#333,#327,#29,.T.);
#275=EDGE_CURVE('',#324,#332,#30,.T.);
#276=EDGE_CURVE('',#325,#335,#31,.F.);
#277=EDGE_CURVE('',#334,#326,#32,.T.);
#278=EDGE_CURVE('',#321,#328,#33,.T.);
#279=EDGE_CURVE('',#320,#330,#34,.T.);
#280=EDGE_CURVE('',#322,#329,#35,.T.);
#281=EDGE_CURVE('',#323,#331,#36,.T.);
#282=EDGE_CURVE('',#336,#336,#362,.T.);
#283=EDGE_CURVE('',#337,#338,#37,.T.);
#284=EDGE_CURVE('',#337,#339,#38,.T.);
#285=EDGE_CURVE('',#339,#340,#39,.T.);
#286=EDGE_CURVE('',#340,#341,#40,.T.);
#287=EDGE_CURVE('',#341,#342,#41,.T.);
#288=EDGE_CURVE('',#343,#342,#42,.T.);
#289=EDGE_CURVE('',#343,#344,#43,.T.);
#290=EDGE_CURVE('',#345,#344,#44,.T.);
#291=EDGE_CURVE('',#346,#345,#45,.T.);
#292=EDGE_CURVE('',#347,#346,#46,.T.);
#293=EDGE_CURVE('',#348,#347,#47,.T.);
#294=EDGE_CURVE('',#348,#338,#48,.T.);
#295=EDGE_CURVE('',#349,#350,#49,.T.);
#296=EDGE_CURVE('',#349,#351,#50,.T.);
#297=EDGE_CURVE('',#352,#351,#51,.T.);
#298=EDGE_CURVE('',#352,#353,#52,.T.);
#299=EDGE_CURVE('',#353,#354,#53,.T.);
#300=EDGE_CURVE('',#354,#355,#54,.T.);
#301=EDGE_CURVE('',#355,#356,#55,.T.);
#302=EDGE_CURVE('',#357,#356,#56,.T.);
#303=EDGE_CURVE('',#357,#358,#57,.T.);
#304=EDGE_CURVE('',#359,#358,#58,.T.);
#305=EDGE_CURVE('',#360,#359,#59,.T.);
#306=EDGE_CURVE('',#350,#360,#60,.T.);
#307=EDGE_CURVE('',#351,#338,#61,.T.);
#308=EDGE_CURVE('',#352,#348,#62,.T.);
#309=EDGE_CURVE('',#353,#347,#63,.T.);
#310=EDGE_CURVE('',#354,#346,#64,.T.);
#311=EDGE_CURVE('',#355,#345,#65,.T.);
#312=EDGE_CURVE('',#356,#344,#66,.T.);
#313=EDGE_CURVE('',#357,#343,#67,.T.);
#314=EDGE_CURVE('',#358,#342,#68,.T.);
#315=EDGE_CURVE('',#359,#341,#69,.T.);
#316=EDGE_CURVE('',#360,#340,#70,.T.);
#317=EDGE_CURVE('',#350,#339,#71,.T.);
#318=EDGE_CURVE('',#349,#337,#72,.T.);
#319=VERTEX_POINT('',#636);
#320=VERTEX_POINT('',#638);
#321=VERTEX_POINT('',#639);
#322=VERTEX_POINT('',#641);
#323=VERTEX_POINT('',#643);
#324=VERTEX_POINT('',#647);
#325=VERTEX_POINT('',#648);
#326=VERTEX_POINT('',#650);
#327=VERTEX_POINT('',#652);
#328=VERTEX_POINT('',#656);
#329=VERTEX_POINT('',#657);
#330=VERTEX_POINT('',#659);
#331=VERTEX_POINT('',#661);
#332=VERTEX_POINT('',#664);
#333=VERTEX_POINT('',#665);
#334=VERTEX_POINT('',#667);
#335=VERTEX_POINT('',#669);
#336=VERTEX_POINT('',#689);
#337=VERTEX_POINT('',#692);
#338=VERTEX_POINT('',#693);
#339=VERTEX_POINT('',#695);
#340=VERTEX_POINT('',#697);
#341=VERTEX_POINT('',#699);
#342=VERTEX_POINT('',#701);
#343=VERTEX_POINT('',#703);
#344=VERTEX_POINT('',#705);
#345=VERTEX_POINT('',#707);
#346=VERTEX_POINT('',#709);
#347=VERTEX_POINT('',#711);
#348=VERTEX_POINT('',#713);
#349=VERTEX_POINT('',#717);
#350=VERTEX_POINT('',#718);
#351=VERTEX_POINT('',#720);
#352=VERTEX_POINT('',#722);
#353=VERTEX_POINT('',#724);
#354=VERTEX_POINT('',#726);
#355=VERTEX_POINT('',#728);
#356=VERTEX_POINT('',#730);
#357=VERTEX_POINT('',#732);
#358=VERTEX_POINT('',#734);
#359=VERTEX_POINT('',#736);
#360=VERTEX_POINT('',#738);
#361=CIRCLE('',#488,0.0025);
#362=CIRCLE('',#500,0.0025);
#363=EDGE_LOOP('',(#133));
#364=EDGE_LOOP('',(#134,#135,#136,#137));
#365=EDGE_LOOP('',(#138,#139,#140,#141));
#366=EDGE_LOOP('',(#142,#143,#144,#145));
#367=EDGE_LOOP('',(#146,#147,#148,#149));
#368=EDGE_LOOP('',(#150,#151,#152,#153));
#369=EDGE_LOOP('',(#154,#155,#156,#157));
#370=EDGE_LOOP('',(#158,#159,#160,#161));
#371=EDGE_LOOP('',(#162,#163,#164,#165));
#372=EDGE_LOOP('',(#166,#167,#168,#169));
#373=EDGE_LOOP('',(#170,#171,#172,#173));
#374=EDGE_LOOP('',(#174,#175,#176,#177));
#375=EDGE_LOOP('',(#178,#179,#180,#181));
#376=EDGE_LOOP('',(#182));
#377=EDGE_LOOP('',(#183));
#378=EDGE_LOOP('',(#184,#185,#186,#187,#188,#189,#190,#191,#192,#193,#194,
#195));
#379=EDGE_LOOP('',(#196));
#380=EDGE_LOOP('',(#197,#198,#199,#200,#201,#202,#203,#204,#205,#206,#207,
#208));
#381=EDGE_LOOP('',(#209,#210,#211,#212));
#382=EDGE_LOOP('',(#213,#214,#215,#216));
#383=EDGE_LOOP('',(#217,#218,#219,#220));
#384=EDGE_LOOP('',(#221,#222,#223,#224));
#385=EDGE_LOOP('',(#225,#226,#227,#228));
#386=EDGE_LOOP('',(#229,#230,#231,#232));
#387=EDGE_LOOP('',(#233,#234,#235,#236));
#388=EDGE_LOOP('',(#237,#238,#239,#240));
#389=EDGE_LOOP('',(#241,#242,#243,#244));
#390=EDGE_LOOP('',(#245,#246,#247,#248));
#391=EDGE_LOOP('',(#249,#250,#251,#252));
#392=EDGE_LOOP('',(#253,#254,#255,#256));
#393=FACE_BOUND('',#363,.T.);
#394=FACE_BOUND('',#364,.T.);
#395=FACE_BOUND('',#365,.T.);
#396=FACE_BOUND('',#366,.T.);
#397=FACE_BOUND('',#367,.T.);
#398=FACE_BOUND('',#368,.T.);
#399=FACE_BOUND('',#369,.T.);
#400=FACE_BOUND('',#370,.T.);
#401=FACE_BOUND('',#371,.T.);
#402=FACE_BOUND('',#372,.T.);
#403=FACE_BOUND('',#373,.T.);
#404=FACE_BOUND('',#374,.T.);
#405=FACE_BOUND('',#375,.T.);
#406=FACE_BOUND('',#376,.T.);
#407=FACE_BOUND('',#377,.T.);
#408=FACE_BOUND('',#378,.T.);
#409=FACE_BOUND('',#379,.T.);
#410=FACE_BOUND('',#380,.T.);
#411=FACE_BOUND('',#381,.T.);
#412=FACE_BOUND('',#382,.T.);
#413=FACE_BOUND('',#383,.T.);
#414=FACE_BOUND('',#384,.T.);
#415=FACE_BOUND('',#385,.T.);
#416=FACE_BOUND('',#386,.T.);
#417=FACE_BOUND('',#387,.T.);
#418=FACE_BOUND('',#388,.T.);
#419=FACE_BOUND('',#389,.T.);
#420=FACE_BOUND('',#390,.T.);
#421=FACE_BOUND('',#391,.T.);
#422=FACE_BOUND('',#392,.T.);
#423=PLANE('',#487);
#424=PLANE('',#489);
#425=PLANE('',#490);
#426=PLANE('',#491);
#427=PLANE('',#492);
#428=PLANE('',#493);
#429=PLANE('',#494);
#430=PLANE('',#495);
#431=PLANE('',#496);
#432=PLANE('',#497);
#433=PLANE('',#498);
#434=PLANE('',#501);
#435=PLANE('',#502);
#436=PLANE('',#503);
#437=PLANE('',#504);
#438=PLANE('',#505);
#439=PLANE('',#506);
#440=PLANE('',#507);
#441=PLANE('',#508);
#442=PLANE('',#509);
#443=PLANE('',#510);
#444=PLANE('',#511);
#445=PLANE('',#512);
#446=PLANE('',#513);
#447=PLANE('',#514);
#448=ADVANCED_FACE('',(#393,#394),#423,.T.);
#449=ADVANCED_FACE('',(#395),#424,.T.);
#450=ADVANCED_FACE('',(#396,#397),#425,.F.);
#451=ADVANCED_FACE('',(#398),#426,.F.);
#452=ADVANCED_FACE('',(#399),#427,.T.);
#453=ADVANCED_FACE('',(#400),#428,.F.);
#454=ADVANCED_FACE('',(#401),#429,.T.);
#455=ADVANCED_FACE('',(#402),#430,.F.);
#456=ADVANCED_FACE('',(#403),#431,.F.);
#457=ADVANCED_FACE('',(#404),#432,.F.);
#458=ADVANCED_FACE('',(#405),#433,.F.);
#459=ADVANCED_FACE('',(#406,#407),#12,.T.);
#460=ADVANCED_FACE('',(#408,#409),#434,.T.);
#461=ADVANCED_FACE('',(#410),#435,.T.);
#462=ADVANCED_FACE('',(#411),#436,.T.);
#463=ADVANCED_FACE('',(#412),#437,.F.);
#464=ADVANCED_FACE('',(#413),#438,.F.);
#465=ADVANCED_FACE('',(#414),#439,.F.);
#466=ADVANCED_FACE('',(#415),#440,.F.);
#467=ADVANCED_FACE('',(#416),#441,.T.);
#468=ADVANCED_FACE('',(#417),#442,.F.);
#469=ADVANCED_FACE('',(#418),#443,.T.);
#470=ADVANCED_FACE('',(#419),#444,.T.);
#471=ADVANCED_FACE('',(#420),#445,.T.);
#472=ADVANCED_FACE('',(#421),#446,.T.);
#473=ADVANCED_FACE('',(#422),#447,.F.);
#474=CLOSED_SHELL('',(#448,#449,#450,#451,#452,#453,#454,#455,#456,#457,
#458,#459,#460,#461,#462,#463,#464,#465,#466,#467,#468,#469,#470,#471,#472,
#473));
#475=STYLED_ITEM('',(#476),#483);
#476=PRESENTATION_STYLE_ASSIGNMENT((#477));
#477=SURFACE_STYLE_USAGE(.BOTH.,#478);
#478=SURFACE_SIDE_STYLE('',(#479));
#479=SURFACE_STYLE_FILL_AREA(#480);
#480=FILL_AREA_STYLE('',(#481));
#481=FILL_AREA_STYLE_COLOUR('',#482);
#482=COLOUR_RGB('',0.615686274509804,0.811764705882353,0.929411764705882);
#483=MANIFOLD_SOLID_BREP('Part 1',#474);
#484=SHAPE_DEFINITION_REPRESENTATION(#770,#485);
#485=SHAPE_REPRESENTATION('Part 1',(#486),#765);
#486=AXIS2_PLACEMENT_3D('',#633,#515,#516);
#487=AXIS2_PLACEMENT_3D('',#634,#517,#518);
#488=AXIS2_PLACEMENT_3D('',#635,#519,#520);
#489=AXIS2_PLACEMENT_3D('',#645,#525,#526);
#490=AXIS2_PLACEMENT_3D('',#654,#531,#532);
#491=AXIS2_PLACEMENT_3D('',#671,#541,#542);
#492=AXIS2_PLACEMENT_3D('',#674,#545,#546);
#493=AXIS2_PLACEMENT_3D('',#676,#548,#549);
#494=AXIS2_PLACEMENT_3D('',#678,#551,#552);
#495=AXIS2_PLACEMENT_3D('',#679,#553,#554);
#496=AXIS2_PLACEMENT_3D('',#682,#557,#558);
#497=AXIS2_PLACEMENT_3D('',#684,#560,#561);
#498=AXIS2_PLACEMENT_3D('',#686,#563,#564);
#499=AXIS2_PLACEMENT_3D('',#687,#565,#566);
#500=AXIS2_PLACEMENT_3D('',#688,#567,#568);
#501=AXIS2_PLACEMENT_3D('',#690,#569,#570);
#502=AXIS2_PLACEMENT_3D('',#715,#583,#584);
#503=AXIS2_PLACEMENT_3D('',#740,#597,#598);
#504=AXIS2_PLACEMENT_3D('',#743,#601,#602);
#505=AXIS2_PLACEMENT_3D('',#745,#604,#605);
#506=AXIS2_PLACEMENT_3D('',#747,#607,#608);
#507=AXIS2_PLACEMENT_3D('',#749,#610,#611);
#508=AXIS2_PLACEMENT_3D('',#751,#613,#614);
#509=AXIS2_PLACEMENT_3D('',#753,#616,#617);
#510=AXIS2_PLACEMENT_3D('',#755,#619,#620);
#511=AXIS2_PLACEMENT_3D('',#757,#622,#623);
#512=AXIS2_PLACEMENT_3D('',#759,#625,#626);
#513=AXIS2_PLACEMENT_3D('',#761,#628,#629);
#514=AXIS2_PLACEMENT_3D('',#763,#631,#632);
#515=DIRECTION('',(0.,0.,1.));
#516=DIRECTION('',(1.,0.,0.));
#517=DIRECTION('',(0.,0.,-1.));
#518=DIRECTION('',(1.,0.,0.));
#519=DIRECTION('',(0.,0.,-1.));
#520=DIRECTION('',(1.,0.,0.));
#521=DIRECTION('',(1.,0.,0.));
#522=DIRECTION('',(-1.23908819712629E-16,-1.,0.));
#523=DIRECTION('',(-1.,1.23908819712629E-16,0.));
#524=DIRECTION('',(1.23908819712629E-16,1.,0.));
#525=DIRECTION('',(0.,0.,1.));
#526=DIRECTION('',(1.,0.,0.));
#527=DIRECTION('',(1.,0.,0.));
#528=DIRECTION('',(0.,1.,0.));
#529=DIRECTION('',(-1.,0.,0.));
#530=DIRECTION('',(0.,-1.,0.));
#531=DIRECTION('',(0.,0.,1.));
#532=DIRECTION('',(1.,0.,0.));
#533=DIRECTION('',(-1.23908819712629E-16,-1.,0.));
#534=DIRECTION('',(1.,0.,0.));
#535=DIRECTION('',(1.23908819712629E-16,1.,0.));
#536=DIRECTION('',(-1.,1.23908819712629E-16,0.));
#537=DIRECTION('',(0.,1.,0.));
#538=DIRECTION('',(1.,0.,0.));
#539=DIRECTION('',(0.,1.,0.));
#540=DIRECTION('',(1.,0.,0.));
#541=DIRECTION('',(0.943858356366017,0.,-0.330350424728106));
#542=DIRECTION('',(0.,1.,0.));
#543=DIRECTION('',(0.313677500463754,-0.313677500463754,0.896221429896442));
#544=DIRECTION('',(-0.313677500463754,-0.313677500463754,-0.896221429896442));
#545=DIRECTION('',(0.,-0.943858356366017,0.330350424728106));
#546=DIRECTION('',(-1.,0.,0.));
#547=DIRECTION('',(-0.313677500463754,0.313677500463754,0.896221429896442));
#548=DIRECTION('',(0.,-0.943858356366017,-0.330350424728106));
#549=DIRECTION('',(1.,0.,0.));
#550=DIRECTION('',(-0.313677500463754,-0.313677500463754,0.896221429896442));
#551=DIRECTION('',(0.943858356366017,0.,0.330350424728106));
#552=DIRECTION('',(0.,-1.,0.));
#553=DIRECTION('',(0.,1.,0.));
#554=DIRECTION('',(0.,0.,1.));
#555=DIRECTION('',(0.,0.,-1.));
#556=DIRECTION('',(0.,0.,-1.));
#557=DIRECTION('',(1.,-1.23908819712629E-16,0.));
#558=DIRECTION('',(1.23908819712629E-16,1.,0.));
#559=DIRECTION('',(0.,0.,-1.));
#560=DIRECTION('',(-1.23908819712629E-16,-1.,0.));
#561=DIRECTION('',(1.,-1.23908819712629E-16,0.));
#562=DIRECTION('',(0.,0.,-1.));
#563=DIRECTION('',(-1.,1.23908819712629E-16,0.));
#564=DIRECTION('',(-1.23908819712629E-16,-1.,0.));
#565=DIRECTION('',(0.,0.,1.));
#566=DIRECTION('',(1.,0.,0.));
#567=DIRECTION('',(0.,0.,-1.));
#568=DIRECTION('',(1.,0.,0.));
#569=DIRECTION('',(0.,0.,-1.));
#570=DIRECTION('',(1.,0.,0.));
#571=DIRECTION('',(-1.,1.60622544071926E-16,0.));
#572=DIRECTION('',(7.74430123203932E-17,1.,0.));
#573=DIRECTION('',(-1.,3.21245088143854E-16,0.));
#574=DIRECTION('',(0.,1.,0.));
#575=DIRECTION('',(-1.,0.,0.));
#576=DIRECTION('',(0.,1.,0.));
#577=DIRECTION('',(-1.,3.21245088143853E-16,0.));
#578=DIRECTION('',(0.,1.,0.));
#579=DIRECTION('',(-1.,1.60622544071926E-16,0.));
#580=DIRECTION('',(0.,1.,0.));
#581=DIRECTION('',(-1.,0.,0.));
#582=DIRECTION('',(0.,1.,0.));
#583=DIRECTION('',(0.,0.,-1.));
#584=DIRECTION('',(1.,0.,0.));
#585=DIRECTION('',(7.74430123203932E-17,1.,0.));
#586=DIRECTION('',(-1.,1.60622544071926E-16,0.));
#587=DIRECTION('',(0.,1.,0.));
#588=DIRECTION('',(-1.,0.,0.));
#589=DIRECTION('',(0.,1.,0.));
#590=DIRECTION('',(-1.,1.60622544071926E-16,0.));
#591=DIRECTION('',(0.,1.,0.));
#592=DIRECTION('',(-1.,3.21245088143853E-16,0.));
#593=DIRECTION('',(0.,1.,0.));
#594=DIRECTION('',(-1.,0.,0.));
#595=DIRECTION('',(0.,1.,0.));
#596=DIRECTION('',(-1.,3.21245088143854E-16,0.));
#597=DIRECTION('',(-1.,0.,0.));
#598=DIRECTION('',(0.,0.,1.));
#599=DIRECTION('',(0.,0.,-1.));
#600=DIRECTION('',(0.,0.,-1.));
#601=DIRECTION('',(0.,-1.,0.));
#602=DIRECTION('',(0.,0.,-1.));
#603=DIRECTION('',(0.,0.,-1.));
#604=DIRECTION('',(-1.,0.,0.));
#605=DIRECTION('',(0.,0.,1.));
#606=DIRECTION('',(0.,0.,-1.));
#607=DIRECTION('',(-1.60622544071926E-16,-1.,0.));
#608=DIRECTION('',(1.,-1.60622544071926E-16,0.));
#609=DIRECTION('',(0.,0.,-1.));
#610=DIRECTION('',(-1.,0.,0.));
#611=DIRECTION('',(0.,0.,1.));
#612=DIRECTION('',(0.,0.,-1.));
#613=DIRECTION('',(-3.21245088143853E-16,-1.,0.));
#614=DIRECTION('',(1.,-3.21245088143853E-16,0.));
#615=DIRECTION('',(0.,0.,-1.));
#616=DIRECTION('',(-1.,0.,0.));
#617=DIRECTION('',(0.,0.,1.));
#618=DIRECTION('',(0.,0.,-1.));
#619=DIRECTION('',(0.,-1.,0.));
#620=DIRECTION('',(0.,0.,-1.));
#621=DIRECTION('',(0.,0.,-1.));
#622=DIRECTION('',(-1.,0.,0.));
#623=DIRECTION('',(0.,0.,1.));
#624=DIRECTION('',(0.,0.,-1.));
#625=DIRECTION('',(-3.21245088143854E-16,-1.,0.));
#626=DIRECTION('',(1.,-3.21245088143854E-16,0.));
#627=DIRECTION('',(0.,0.,-1.));
#628=DIRECTION('',(-1.,7.74430123203932E-17,0.));
#629=DIRECTION('',(-7.74430123203932E-17,-1.,0.));
#630=DIRECTION('',(0.,0.,-1.));
#631=DIRECTION('',(-1.60622544071926E-16,-1.,0.));
#632=DIRECTION('',(1.,-1.60622544071926E-16,0.));
#633=CARTESIAN_POINT('',(0.,0.,0.));
#634=CARTESIAN_POINT('',(-0.00274965073913336,0.0024870304448894,0.004));
#635=CARTESIAN_POINT('',(-0.00274965073913335,0.0024870304448894,0.004));
#636=CARTESIAN_POINT('',(-0.000249650739133355,0.0024870304448894,0.004));
#637=CARTESIAN_POINT('',(-0.00274965073913335,0.00948703044488941,0.004));
#638=CARTESIAN_POINT('',(-0.00974965073913336,0.00948703044488941,0.004));
#639=CARTESIAN_POINT('',(0.00425034926086665,0.00948703044488941,0.004));
#640=CARTESIAN_POINT('',(0.00425034926086664,0.0024870304448894,0.004));
#641=CARTESIAN_POINT('',(0.00425034926086664,-0.0045129695551106,0.004));
#642=CARTESIAN_POINT('',(-0.00274965073913336,-0.0045129695551106,0.004));
#643=CARTESIAN_POINT('',(-0.00974965073913336,-0.0045129695551106,0.004));
#644=CARTESIAN_POINT('',(-0.00974965073913336,0.0024870304448894,0.004));
#645=CARTESIAN_POINT('',(-0.00274965073913336,0.0024870304448894,0.01));
#646=CARTESIAN_POINT('',(0.00625034926086664,-0.0030129695551106,0.01));
#647=CARTESIAN_POINT('',(-0.00824965073913336,-0.0030129695551106,0.01));
#648=CARTESIAN_POINT('',(0.00275034926086664,-0.0030129695551106,0.01));
#649=CARTESIAN_POINT('',(0.00275034926086664,0.0114870304448894,0.01));
#650=CARTESIAN_POINT('',(0.00275034926086664,0.00798703044488941,0.01));
#651=CARTESIAN_POINT('',(-0.00274965073913336,0.00798703044488941,0.01));
#652=CARTESIAN_POINT('',(-0.00824965073913336,0.00798703044488941,0.01));
#653=CARTESIAN_POINT('',(-0.00824965073913336,0.0024870304448894,0.01));
#654=CARTESIAN_POINT('',(-0.00274965073913336,0.0024870304448894,0.));
#655=CARTESIAN_POINT('',(0.00425034926086664,0.0024870304448894,0.));
#656=CARTESIAN_POINT('',(0.00425034926086665,0.00948703044488941,0.));
#657=CARTESIAN_POINT('',(0.00425034926086664,-0.0045129695551106,0.));
#658=CARTESIAN_POINT('',(-0.00274965073913335,0.00948703044488941,0.));
#659=CARTESIAN_POINT('',(-0.00974965073913336,0.00948703044488941,0.));
#660=CARTESIAN_POINT('',(-0.00974965073913336,0.0024870304448894,0.));
#661=CARTESIAN_POINT('',(-0.00974965073913336,-0.0045129695551106,0.));
#662=CARTESIAN_POINT('',(-0.00274965073913336,-0.0045129695551106,0.));
#663=CARTESIAN_POINT('',(-0.0117496507391334,0.0024870304448894,0.));
#664=CARTESIAN_POINT('',(-0.0117496507391334,-0.0065129695551106,0.));
#665=CARTESIAN_POINT('',(-0.0117496507391334,0.0114870304448894,0.));
#666=CARTESIAN_POINT('',(-0.00274965073913336,0.0114870304448894,0.));
#667=CARTESIAN_POINT('',(0.00625034926086664,0.0114870304448894,0.));
#668=CARTESIAN_POINT('',(0.00625034926086664,0.0024870304448894,0.));
#669=CARTESIAN_POINT('',(0.00625034926086664,-0.0065129695551106,0.));
#670=CARTESIAN_POINT('',(-0.00274965073913336,-0.0065129695551106,0.));
#671=CARTESIAN_POINT('',(-0.0117496507391334,0.0024870304448894,0.));
#672=CARTESIAN_POINT('',(-0.0108641085704587,0.0106014882762147,0.00253012048192771));
#673=CARTESIAN_POINT('',(-0.0108641085704587,-0.0056274273864359,0.00253012048192771));
#674=CARTESIAN_POINT('',(-0.00274965073913336,-0.0030129695551106,0.01));
#675=CARTESIAN_POINT('',(0.00220918460223211,-0.00247180489647607,0.0115461847389558));
#676=CARTESIAN_POINT('',(-0.00274965073913336,0.0114870304448894,0.));
#677=CARTESIAN_POINT('',(0.00536480709219194,0.0106014882762147,0.00253012048192771));
#678=CARTESIAN_POINT('',(0.00275034926086664,0.0024870304448894,0.01));
#679=CARTESIAN_POINT('',(-0.00274965073913335,0.00948703044488941,0.004));
#680=CARTESIAN_POINT('',(0.00425034926086665,0.00948703044488941,0.004));
#681=CARTESIAN_POINT('',(-0.00974965073913336,0.00948703044488941,0.004));
#682=CARTESIAN_POINT('',(0.00425034926086664,0.0024870304448894,0.004));
#683=CARTESIAN_POINT('',(0.00425034926086664,-0.0045129695551106,0.004));
#684=CARTESIAN_POINT('',(-0.00274965073913336,-0.0045129695551106,0.004));
#685=CARTESIAN_POINT('',(-0.00974965073913336,-0.0045129695551106,0.004));
#686=CARTESIAN_POINT('',(-0.00974965073913336,0.0024870304448894,0.004));
#687=CARTESIAN_POINT('',(-0.00274965073913335,0.0024870304448894,0.));
#688=CARTESIAN_POINT('',(-0.00274965073913335,0.0024870304448894,0.));
#689=CARTESIAN_POINT('',(-0.000249650739133355,0.0024870304448894,0.));
#690=CARTESIAN_POINT('',(-0.00274965073913336,0.0024870304448894,0.));
#691=CARTESIAN_POINT('',(-0.00137465073913336,0.00178703044488941,0.));
#692=CARTESIAN_POINT('',(-0.000699650739133356,0.00178703044488941,0.));
#693=CARTESIAN_POINT('',(-0.00204965073913336,0.00178703044488941,0.));
#694=CARTESIAN_POINT('',(-0.000699650739133356,0.0024870304448894,0.));
#695=CARTESIAN_POINT('',(-0.000699650739133357,0.0031870304448894,0.));
#696=CARTESIAN_POINT('',(-0.00137465073913336,0.0031870304448894,0.));
#697=CARTESIAN_POINT('',(-0.00204965073913336,0.0031870304448894,0.));
#698=CARTESIAN_POINT('',(-0.00204965073913336,0.00386203044488941,0.));
#699=CARTESIAN_POINT('',(-0.00204965073913336,0.0045370304448894,0.));
#700=CARTESIAN_POINT('',(-0.00274965073913335,0.0045370304448894,0.));
#701=CARTESIAN_POINT('',(-0.00344965073913336,0.0045370304448894,0.));
#702=CARTESIAN_POINT('',(-0.00344965073913336,0.00386203044488941,0.));
#703=CARTESIAN_POINT('',(-0.00344965073913336,0.0031870304448894,0.));
#704=CARTESIAN_POINT('',(-0.00412465073913335,0.0031870304448894,0.));
#705=CARTESIAN_POINT('',(-0.00479965073913336,0.0031870304448894,0.));
#706=CARTESIAN_POINT('',(-0.00479965073913336,0.0024870304448894,0.));
#707=CARTESIAN_POINT('',(-0.00479965073913336,0.00178703044488941,0.));
#708=CARTESIAN_POINT('',(-0.00412465073913335,0.00178703044488941,0.));
#709=CARTESIAN_POINT('',(-0.00344965073913336,0.00178703044488941,0.));
#710=CARTESIAN_POINT('',(-0.00344965073913336,0.0011120304448894,0.));
#711=CARTESIAN_POINT('',(-0.00344965073913336,0.000437030444889404,0.));
#712=CARTESIAN_POINT('',(-0.00274965073913335,0.000437030444889404,0.));
#713=CARTESIAN_POINT('',(-0.00204965073913336,0.000437030444889404,0.));
#714=CARTESIAN_POINT('',(-0.00204965073913336,0.0011120304448894,0.));
#715=CARTESIAN_POINT('',(-0.00274965073913336,0.0024870304448894,0.009));
#716=CARTESIAN_POINT('',(-0.000699650739133356,0.0024870304448894,0.009));
#717=CARTESIAN_POINT('',(-0.000699650739133356,0.00178703044488941,0.009));
#718=CARTESIAN_POINT('',(-0.000699650739133357,0.0031870304448894,0.009));
#719=CARTESIAN_POINT('',(-0.00137465073913336,0.00178703044488941,0.009));
#720=CARTESIAN_POINT('',(-0.00204965073913336,0.00178703044488941,0.009));
#721=CARTESIAN_POINT('',(-0.00204965073913336,0.0011120304448894,0.009));
#722=CARTESIAN_POINT('',(-0.00204965073913336,0.000437030444889404,0.009));
#723=CARTESIAN_POINT('',(-0.00274965073913335,0.000437030444889404,0.009));
#724=CARTESIAN_POINT('',(-0.00344965073913336,0.000437030444889404,0.009));
#725=CARTESIAN_POINT('',(-0.00344965073913336,0.0011120304448894,0.009));
#726=CARTESIAN_POINT('',(-0.00344965073913336,0.00178703044488941,0.009));
#727=CARTESIAN_POINT('',(-0.00412465073913335,0.00178703044488941,0.009));
#728=CARTESIAN_POINT('',(-0.00479965073913336,0.00178703044488941,0.009));
#729=CARTESIAN_POINT('',(-0.00479965073913336,0.0024870304448894,0.009));
#730=CARTESIAN_POINT('',(-0.00479965073913336,0.0031870304448894,0.009));
#731=CARTESIAN_POINT('',(-0.00412465073913335,0.0031870304448894,0.009));
#732=CARTESIAN_POINT('',(-0.00344965073913336,0.0031870304448894,0.009));
#733=CARTESIAN_POINT('',(-0.00344965073913336,0.00386203044488941,0.009));
#734=CARTESIAN_POINT('',(-0.00344965073913336,0.0045370304448894,0.009));
#735=CARTESIAN_POINT('',(-0.00274965073913335,0.0045370304448894,0.009));
#736=CARTESIAN_POINT('',(-0.00204965073913336,0.0045370304448894,0.009));
#737=CARTESIAN_POINT('',(-0.00204965073913336,0.00386203044488941,0.009));
#738=CARTESIAN_POINT('',(-0.00204965073913336,0.0031870304448894,0.009));
#739=CARTESIAN_POINT('',(-0.00137465073913336,0.0031870304448894,0.009));
#740=CARTESIAN_POINT('',(-0.00204965073913336,0.0011120304448894,0.009));
#741=CARTESIAN_POINT('',(-0.00204965073913336,0.00178703044488941,0.009));
#742=CARTESIAN_POINT('',(-0.00204965073913336,0.000437030444889404,0.009));
#743=CARTESIAN_POINT('',(-0.00274965073913335,0.000437030444889404,0.009));
#744=CARTESIAN_POINT('',(-0.00344965073913336,0.000437030444889404,0.009));
#745=CARTESIAN_POINT('',(-0.00344965073913336,0.0011120304448894,0.009));
#746=CARTESIAN_POINT('',(-0.00344965073913336,0.00178703044488941,0.009));
#747=CARTESIAN_POINT('',(-0.00412465073913335,0.00178703044488941,0.009));
#748=CARTESIAN_POINT('',(-0.00479965073913336,0.00178703044488941,0.009));
#749=CARTESIAN_POINT('',(-0.00479965073913336,0.0024870304448894,0.009));
#750=CARTESIAN_POINT('',(-0.00479965073913336,0.0031870304448894,0.009));
#751=CARTESIAN_POINT('',(-0.00412465073913335,0.0031870304448894,0.009));
#752=CARTESIAN_POINT('',(-0.00344965073913336,0.0031870304448894,0.009));
#753=CARTESIAN_POINT('',(-0.00344965073913336,0.00386203044488941,0.009));
#754=CARTESIAN_POINT('',(-0.00344965073913336,0.0045370304448894,0.009));
#755=CARTESIAN_POINT('',(-0.00274965073913335,0.0045370304448894,0.009));
#756=CARTESIAN_POINT('',(-0.00204965073913336,0.0045370304448894,0.009));
#757=CARTESIAN_POINT('',(-0.00204965073913336,0.00386203044488941,0.009));
#758=CARTESIAN_POINT('',(-0.00204965073913336,0.0031870304448894,0.009));
#759=CARTESIAN_POINT('',(-0.00137465073913336,0.0031870304448894,0.009));
#760=CARTESIAN_POINT('',(-0.000699650739133357,0.0031870304448894,0.009));
#761=CARTESIAN_POINT('',(-0.000699650739133356,0.0024870304448894,0.009));
#762=CARTESIAN_POINT('',(-0.000699650739133356,0.00178703044488941,0.009));
#763=CARTESIAN_POINT('',(-0.00137465073913336,0.00178703044488941,0.009));
#764=MECHANICAL_DESIGN_GEOMETRIC_PRESENTATION_REPRESENTATION('',(#475),
#765);
#765=(
GEOMETRIC_REPRESENTATION_CONTEXT(3)
GLOBAL_UNCERTAINTY_ASSIGNED_CONTEXT((#766))
GLOBAL_UNIT_ASSIGNED_CONTEXT((#769,#768,#767))
REPRESENTATION_CONTEXT('Part 1','TOP_LEVEL_ASSEMBLY_PART')
);
#766=UNCERTAINTY_MEASURE_WITH_UNIT(LENGTH_MEASURE(1.E-8),#769,
'DISTANCE_ACCURACY_VALUE','Maximum Tolerance applied to model');
#767=(
NAMED_UNIT(*)
SI_UNIT($,.STERADIAN.)
SOLID_ANGLE_UNIT()
);
#768=(
NAMED_UNIT(*)
PLANE_ANGLE_UNIT()
SI_UNIT($,.RADIAN.)
);
#769=(
LENGTH_UNIT()
NAMED_UNIT(*)
SI_UNIT($,.METRE.)
);
#770=PRODUCT_DEFINITION_SHAPE('','',#771);
#771=PRODUCT_DEFINITION('','',#773,#772);
#772=PRODUCT_DEFINITION_CONTEXT('',#779,'design');
#773=PRODUCT_DEFINITION_FORMATION_WITH_SPECIFIED_SOURCE('','',#775,
 .NOT_KNOWN.);
#774=PRODUCT_RELATED_PRODUCT_CATEGORY('','',(#775));
#775=PRODUCT('Part 1','Part 1','Part 1',(#777));
#776=PRODUCT_CATEGORY('','');
#777=PRODUCT_CONTEXT('',#779,'mechanical');
#778=APPLICATION_PROTOCOL_DEFINITION('international standard',
'ap242_managed_model_based_3d_engineering',2020,#779);
#779=APPLICATION_CONTEXT('managed model based 3d engineering');
ENDSEC;
END-ISO-10303-21;
